%TF.GenerationSoftware,KiCad,Pcbnew,10.0.4*%
%TF.CreationDate,2026-07-18T00:10:43-04:00*%
%TF.ProjectId,pcb,7063622e-6b69-4636-9164-5f7063625858,rev?*%
%TF.SameCoordinates,Original*%
%TF.FileFunction,OtherDrawing,Comment*%
%FSLAX46Y46*%
G04 Gerber Fmt 4.6, Leading zero omitted, Abs format (unit mm)*
G04 Created by KiCad (PCBNEW 10.0.4) date 2026-07-18 00:10:43*
%MOMM*%
%LPD*%
G01*
G04 APERTURE LIST*
%ADD10C,0.100000*%
%ADD11C,0.120000*%
G04 APERTURE END LIST*
%TO.C,SW16*%
D10*
X124389214Y-133539214D02*
X124389214Y-152589214D01*
X124389214Y-152589214D02*
X143439214Y-152589214D01*
X143439214Y-133539214D02*
X124389214Y-133539214D01*
X143439214Y-152589214D02*
X143439214Y-133539214D01*
%TO.C,SW63*%
X283039130Y-133540000D02*
X283039130Y-152590000D01*
X283039130Y-152590000D02*
X302089130Y-152590000D01*
X302089130Y-133540000D02*
X283039130Y-133540000D01*
X302089130Y-152590000D02*
X302089130Y-133540000D01*
%TO.C,SW3*%
X143439214Y-98489214D02*
X143439214Y-117539214D01*
X143439214Y-117539214D02*
X162489214Y-117539214D01*
X162489214Y-98489214D02*
X143439214Y-98489214D01*
X162489214Y-117539214D02*
X162489214Y-98489214D01*
%TO.C,SW64*%
X302089130Y-134040000D02*
X302089130Y-153090000D01*
X302089130Y-153090000D02*
X321139130Y-153090000D01*
X321139130Y-134040000D02*
X302089130Y-134040000D01*
X321139130Y-153090000D02*
X321139130Y-134040000D01*
%TO.C,SW62*%
X263989130Y-136590000D02*
X263989130Y-155640000D01*
X263989130Y-155640000D02*
X283039130Y-155640000D01*
X283039130Y-136590000D02*
X263989130Y-136590000D01*
X283039130Y-155640000D02*
X283039130Y-136590000D01*
%TO.C,SW4*%
X124389214Y-95439214D02*
X124389214Y-114489214D01*
X124389214Y-114489214D02*
X143439214Y-114489214D01*
X143439214Y-95439214D02*
X124389214Y-95439214D01*
X143439214Y-114489214D02*
X143439214Y-95439214D01*
%TO.C,SW68*%
X239548435Y-162853313D02*
X244478938Y-181254200D01*
X244478938Y-181254200D02*
X262879825Y-176323697D01*
X257949322Y-157922810D02*
X239548435Y-162853313D01*
X262879825Y-176323697D02*
X257949322Y-157922810D01*
%TO.C,SW12*%
X86289214Y-117739214D02*
X86289214Y-136789214D01*
X86289214Y-136789214D02*
X105339214Y-136789214D01*
X105339214Y-117739214D02*
X86289214Y-117739214D01*
X105339214Y-136789214D02*
X105339214Y-117739214D01*
%TO.C,SW65*%
X321139130Y-136790000D02*
X321139130Y-155840000D01*
X321139130Y-155840000D02*
X340189130Y-155840000D01*
X340189130Y-136790000D02*
X321139130Y-136790000D01*
X340189130Y-155840000D02*
X340189130Y-136790000D01*
%TO.C,SW20*%
X183132892Y-181934965D02*
X200398056Y-189985843D01*
X191183770Y-164669801D02*
X183132892Y-181934965D01*
X200398056Y-189985843D02*
X208448934Y-172720679D01*
X208448934Y-172720679D02*
X191183770Y-164669801D01*
%TO.C,SW56*%
X263989130Y-117540000D02*
X263989130Y-136590000D01*
X263989130Y-136590000D02*
X283039130Y-136590000D01*
X283039130Y-117540000D02*
X263989130Y-117540000D01*
X283039130Y-136590000D02*
X283039130Y-117540000D01*
%TO.C,SW18*%
X86289214Y-136789214D02*
X86289214Y-155839214D01*
X86289214Y-155839214D02*
X105339214Y-155839214D01*
X105339214Y-136789214D02*
X86289214Y-136789214D01*
X105339214Y-155839214D02*
X105339214Y-136789214D01*
%TO.C,SW67*%
X218006108Y-172707858D02*
X226056988Y-189973022D01*
X226056988Y-189973022D02*
X243322152Y-181922142D01*
X235271272Y-164656978D02*
X218006108Y-172707858D01*
X243322152Y-181922142D02*
X235271272Y-164656978D01*
%TO.C,SW14*%
X162489214Y-136589214D02*
X162489214Y-155639214D01*
X162489214Y-155639214D02*
X181539214Y-155639214D01*
X181539214Y-136589214D02*
X162489214Y-136589214D01*
X181539214Y-155639214D02*
X181539214Y-136589214D01*
%TO.C,SW54*%
X340189130Y-98690000D02*
X340189130Y-117740000D01*
X340189130Y-117740000D02*
X359239130Y-117740000D01*
X359239130Y-98690000D02*
X340189130Y-98690000D01*
X359239130Y-117740000D02*
X359239130Y-98690000D01*
%TO.C,SW13*%
X67239214Y-117739214D02*
X67239214Y-136789214D01*
X67239214Y-136789214D02*
X86289214Y-136789214D01*
X86289214Y-117739214D02*
X67239214Y-117739214D01*
X86289214Y-136789214D02*
X86289214Y-117739214D01*
%TO.C,SW7*%
X67239214Y-98689214D02*
X67239214Y-117739214D01*
X67239214Y-117739214D02*
X86289214Y-117739214D01*
X86289214Y-98689214D02*
X67239214Y-98689214D01*
X86289214Y-117739214D02*
X86289214Y-98689214D01*
%TO.C,SW53*%
X321139130Y-98690000D02*
X321139130Y-117740000D01*
X321139130Y-117740000D02*
X340189130Y-117740000D01*
X340189130Y-98690000D02*
X321139130Y-98690000D01*
X340189130Y-117740000D02*
X340189130Y-98690000D01*
%TO.C,SW10*%
X124389214Y-114469214D02*
X124389214Y-133519214D01*
X124389214Y-133519214D02*
X143439214Y-133519214D01*
X143439214Y-114469214D02*
X124389214Y-114469214D01*
X143439214Y-133519214D02*
X143439214Y-114469214D01*
%TO.C,SW55*%
X244939130Y-117540000D02*
X244939130Y-136590000D01*
X244939130Y-136590000D02*
X263989130Y-136590000D01*
X263989130Y-117540000D02*
X244939130Y-117540000D01*
X263989130Y-136590000D02*
X263989130Y-117540000D01*
%TO.C,SW51*%
X283039130Y-95440000D02*
X283039130Y-114490000D01*
X283039130Y-114490000D02*
X302089130Y-114490000D01*
X302089130Y-95440000D02*
X283039130Y-95440000D01*
X302089130Y-114490000D02*
X302089130Y-95440000D01*
%TO.C,SW19*%
X67239214Y-136789214D02*
X67239214Y-155839214D01*
X67239214Y-155839214D02*
X86289214Y-155839214D01*
X86289214Y-136789214D02*
X67239214Y-136789214D01*
X86289214Y-155839214D02*
X86289214Y-136789214D01*
%TO.C,J7*%
D11*
X225834130Y-108835000D02*
X237834130Y-108835000D01*
X225834130Y-146835000D02*
X225834130Y-108835000D01*
X225834130Y-146835000D02*
X237834130Y-146835000D01*
X237834130Y-108835000D02*
X237834130Y-146835000D01*
%TO.C,SW9*%
D10*
X143439214Y-117539214D02*
X143439214Y-136589214D01*
X143439214Y-136589214D02*
X162489214Y-136589214D01*
X162489214Y-117539214D02*
X143439214Y-117539214D01*
X162489214Y-136589214D02*
X162489214Y-117539214D01*
%TO.C,SW61*%
X244939130Y-136590000D02*
X244939130Y-155640000D01*
X244939130Y-155640000D02*
X263989130Y-155640000D01*
X263989130Y-136590000D02*
X244939130Y-136590000D01*
X263989130Y-155640000D02*
X263989130Y-136590000D01*
%TO.C,SW49*%
X244929130Y-98500000D02*
X244929130Y-117550000D01*
X244929130Y-117550000D02*
X263979130Y-117550000D01*
X263979130Y-98500000D02*
X244929130Y-98500000D01*
X263979130Y-117550000D02*
X263979130Y-98500000D01*
%TO.C,SW57*%
X283039130Y-114490000D02*
X283039130Y-133540000D01*
X283039130Y-133540000D02*
X302089130Y-133540000D01*
X302089130Y-114490000D02*
X283039130Y-114490000D01*
X302089130Y-133540000D02*
X302089130Y-114490000D01*
%TO.C,SW5*%
X105339214Y-95939214D02*
X105339214Y-114989214D01*
X105339214Y-114989214D02*
X124389214Y-114989214D01*
X124389214Y-95939214D02*
X105339214Y-95939214D01*
X124389214Y-114989214D02*
X124389214Y-95939214D01*
%TO.C,SW11*%
X105339214Y-114989214D02*
X105339214Y-134039214D01*
X105339214Y-134039214D02*
X124389214Y-134039214D01*
X124389214Y-114989214D02*
X105339214Y-114989214D01*
X124389214Y-134039214D02*
X124389214Y-114989214D01*
%TO.C,SW15*%
X143439214Y-136589214D02*
X143439214Y-155639214D01*
X143439214Y-155639214D02*
X162489214Y-155639214D01*
X162489214Y-136589214D02*
X143439214Y-136589214D01*
X162489214Y-155639214D02*
X162489214Y-136589214D01*
%TO.C,SW6*%
X86289214Y-98689214D02*
X86289214Y-117739214D01*
X86289214Y-117739214D02*
X105339214Y-117739214D01*
X105339214Y-98689214D02*
X86289214Y-98689214D01*
X105339214Y-117739214D02*
X105339214Y-98689214D01*
%TO.C,SW8*%
X162489214Y-117539214D02*
X162489214Y-136589214D01*
X162489214Y-136589214D02*
X181539214Y-136589214D01*
X181539214Y-117539214D02*
X162489214Y-117539214D01*
X181539214Y-136589214D02*
X181539214Y-117539214D01*
%TO.C,SW2*%
X162489214Y-98489214D02*
X162489214Y-117539214D01*
X162489214Y-117539214D02*
X181539214Y-117539214D01*
X181539214Y-98489214D02*
X162489214Y-98489214D01*
X181539214Y-117539214D02*
X181539214Y-98489214D01*
%TO.C,SW60*%
X340189130Y-117740000D02*
X340189130Y-136790000D01*
X340189130Y-136790000D02*
X359239130Y-136790000D01*
X359239130Y-117740000D02*
X340189130Y-117740000D01*
X359239130Y-136790000D02*
X359239130Y-117740000D01*
%TO.C,SW17*%
X105339214Y-134039214D02*
X105339214Y-153089214D01*
X105339214Y-153089214D02*
X124389214Y-153089214D01*
X124389214Y-134039214D02*
X105339214Y-134039214D01*
X124389214Y-153089214D02*
X124389214Y-134039214D01*
%TO.C,SW58*%
X302089130Y-114990000D02*
X302089130Y-134040000D01*
X302089130Y-134040000D02*
X321139130Y-134040000D01*
X321139130Y-114990000D02*
X302089130Y-114990000D01*
X321139130Y-134040000D02*
X321139130Y-114990000D01*
%TO.C,SW66*%
X340189130Y-136790000D02*
X340189130Y-155840000D01*
X340189130Y-155840000D02*
X359239130Y-155840000D01*
X359239130Y-136790000D02*
X340189130Y-136790000D01*
X359239130Y-155840000D02*
X359239130Y-136790000D01*
%TO.C,SW50*%
X263979130Y-98500000D02*
X263979130Y-117550000D01*
X263979130Y-117550000D02*
X283029130Y-117550000D01*
X283029130Y-98500000D02*
X263979130Y-98500000D01*
X283029130Y-117550000D02*
X283029130Y-98500000D01*
%TO.C,SW69*%
X263939130Y-157490000D02*
X263939130Y-176540000D01*
X263939130Y-176540000D02*
X282989130Y-176540000D01*
X282989130Y-157490000D02*
X263939130Y-157490000D01*
X282989130Y-176540000D02*
X282989130Y-157490000D01*
%TO.C,SW59*%
X321139130Y-117740000D02*
X321139130Y-136790000D01*
X321139130Y-136790000D02*
X340189130Y-136790000D01*
X340189130Y-117740000D02*
X321139130Y-117740000D01*
X340189130Y-136790000D02*
X340189130Y-117740000D01*
%TO.C,SW52*%
X302089130Y-95940000D02*
X302089130Y-114990000D01*
X302089130Y-114990000D02*
X321139130Y-114990000D01*
X321139130Y-95940000D02*
X302089130Y-95940000D01*
X321139130Y-114990000D02*
X321139130Y-95940000D01*
%TO.C,J1*%
D11*
X188639214Y-108859214D02*
X200639214Y-108859214D01*
X188639214Y-146859214D02*
X188639214Y-108859214D01*
X188639214Y-146859214D02*
X200639214Y-146859214D01*
X200639214Y-108859214D02*
X200639214Y-146859214D01*
%TO.C,SW21*%
D10*
X163609911Y-176313014D02*
X182010798Y-181243517D01*
X168540414Y-157912127D02*
X163609911Y-176313014D01*
X182010798Y-181243517D02*
X186941301Y-162842630D01*
X186941301Y-162842630D02*
X168540414Y-157912127D01*
%TO.C,SW22*%
X143489214Y-157489214D02*
X143489214Y-176539214D01*
X143489214Y-176539214D02*
X162539214Y-176539214D01*
X162539214Y-157489214D02*
X143489214Y-157489214D01*
X162539214Y-176539214D02*
X162539214Y-157489214D01*
%TD*%
M02*
