%TF.GenerationSoftware,KiCad,Pcbnew,10.0.4*%
%TF.CreationDate,2026-07-18T00:10:43-04:00*%
%TF.ProjectId,pcb,7063622e-6b69-4636-9164-5f7063625858,rev?*%
%TF.SameCoordinates,Original*%
%TF.FileFunction,Other,Comment*%
%FSLAX46Y46*%
G04 Gerber Fmt 4.6, Leading zero omitted, Abs format (unit mm)*
G04 Created by KiCad (PCBNEW 10.0.4) date 2026-07-18 00:10:43*
%MOMM*%
%LPD*%
G01*
G04 APERTURE LIST*
%ADD10C,0.300000*%
%ADD11C,0.200000*%
%ADD12C,0.150000*%
G04 APERTURE END LIST*
D10*
X144892542Y-99249927D02*
X144892542Y-98321355D01*
X144892542Y-98321355D02*
X145463971Y-98821355D01*
X145463971Y-98821355D02*
X145463971Y-98607070D01*
X145463971Y-98607070D02*
X145535399Y-98464213D01*
X145535399Y-98464213D02*
X145606828Y-98392784D01*
X145606828Y-98392784D02*
X145749685Y-98321355D01*
X145749685Y-98321355D02*
X146106828Y-98321355D01*
X146106828Y-98321355D02*
X146249685Y-98392784D01*
X146249685Y-98392784D02*
X146321114Y-98464213D01*
X146321114Y-98464213D02*
X146392542Y-98607070D01*
X146392542Y-98607070D02*
X146392542Y-99035641D01*
X146392542Y-99035641D02*
X146321114Y-99178498D01*
X146321114Y-99178498D02*
X146249685Y-99249927D01*
X146249685Y-97678499D02*
X146321114Y-97607070D01*
X146321114Y-97607070D02*
X146392542Y-97678499D01*
X146392542Y-97678499D02*
X146321114Y-97749927D01*
X146321114Y-97749927D02*
X146249685Y-97678499D01*
X146249685Y-97678499D02*
X146392542Y-97678499D01*
X144892542Y-96678498D02*
X144892542Y-96535641D01*
X144892542Y-96535641D02*
X144963971Y-96392784D01*
X144963971Y-96392784D02*
X145035399Y-96321356D01*
X145035399Y-96321356D02*
X145178256Y-96249927D01*
X145178256Y-96249927D02*
X145463971Y-96178498D01*
X145463971Y-96178498D02*
X145821114Y-96178498D01*
X145821114Y-96178498D02*
X146106828Y-96249927D01*
X146106828Y-96249927D02*
X146249685Y-96321356D01*
X146249685Y-96321356D02*
X146321114Y-96392784D01*
X146321114Y-96392784D02*
X146392542Y-96535641D01*
X146392542Y-96535641D02*
X146392542Y-96678498D01*
X146392542Y-96678498D02*
X146321114Y-96821356D01*
X146321114Y-96821356D02*
X146249685Y-96892784D01*
X146249685Y-96892784D02*
X146106828Y-96964213D01*
X146106828Y-96964213D02*
X145821114Y-97035641D01*
X145821114Y-97035641D02*
X145463971Y-97035641D01*
X145463971Y-97035641D02*
X145178256Y-96964213D01*
X145178256Y-96964213D02*
X145035399Y-96892784D01*
X145035399Y-96892784D02*
X144963971Y-96821356D01*
X144963971Y-96821356D02*
X144892542Y-96678498D01*
X144892542Y-94821356D02*
X144892542Y-95535642D01*
X144892542Y-95535642D02*
X145606828Y-95607070D01*
X145606828Y-95607070D02*
X145535399Y-95535642D01*
X145535399Y-95535642D02*
X145463971Y-95392785D01*
X145463971Y-95392785D02*
X145463971Y-95035642D01*
X145463971Y-95035642D02*
X145535399Y-94892785D01*
X145535399Y-94892785D02*
X145606828Y-94821356D01*
X145606828Y-94821356D02*
X145749685Y-94749927D01*
X145749685Y-94749927D02*
X146106828Y-94749927D01*
X146106828Y-94749927D02*
X146249685Y-94821356D01*
X146249685Y-94821356D02*
X146321114Y-94892785D01*
X146321114Y-94892785D02*
X146392542Y-95035642D01*
X146392542Y-95035642D02*
X146392542Y-95392785D01*
X146392542Y-95392785D02*
X146321114Y-95535642D01*
X146321114Y-95535642D02*
X146249685Y-95607070D01*
D11*
X143939214Y-95439214D02*
X148100634Y-95439214D01*
X148100634Y-98489214D02*
X143939214Y-98489214D01*
X147514214Y-95439214D02*
X147514214Y-98489214D01*
X147514214Y-95439214D02*
X148100635Y-96565718D01*
X147514214Y-95439214D02*
X146927793Y-96565718D01*
X147514214Y-98489214D02*
X146927793Y-97362710D01*
X147514214Y-98489214D02*
X148100635Y-97362710D01*
D10*
X118892542Y-96832070D02*
X118892542Y-96689213D01*
X118892542Y-96689213D02*
X118963971Y-96546356D01*
X118963971Y-96546356D02*
X119035399Y-96474928D01*
X119035399Y-96474928D02*
X119178256Y-96403499D01*
X119178256Y-96403499D02*
X119463971Y-96332070D01*
X119463971Y-96332070D02*
X119821114Y-96332070D01*
X119821114Y-96332070D02*
X120106828Y-96403499D01*
X120106828Y-96403499D02*
X120249685Y-96474928D01*
X120249685Y-96474928D02*
X120321114Y-96546356D01*
X120321114Y-96546356D02*
X120392542Y-96689213D01*
X120392542Y-96689213D02*
X120392542Y-96832070D01*
X120392542Y-96832070D02*
X120321114Y-96974928D01*
X120321114Y-96974928D02*
X120249685Y-97046356D01*
X120249685Y-97046356D02*
X120106828Y-97117785D01*
X120106828Y-97117785D02*
X119821114Y-97189213D01*
X119821114Y-97189213D02*
X119463971Y-97189213D01*
X119463971Y-97189213D02*
X119178256Y-97117785D01*
X119178256Y-97117785D02*
X119035399Y-97046356D01*
X119035399Y-97046356D02*
X118963971Y-96974928D01*
X118963971Y-96974928D02*
X118892542Y-96832070D01*
X120249685Y-95689214D02*
X120321114Y-95617785D01*
X120321114Y-95617785D02*
X120392542Y-95689214D01*
X120392542Y-95689214D02*
X120321114Y-95760642D01*
X120321114Y-95760642D02*
X120249685Y-95689214D01*
X120249685Y-95689214D02*
X120392542Y-95689214D01*
X118892542Y-94260642D02*
X118892542Y-94974928D01*
X118892542Y-94974928D02*
X119606828Y-95046356D01*
X119606828Y-95046356D02*
X119535399Y-94974928D01*
X119535399Y-94974928D02*
X119463971Y-94832071D01*
X119463971Y-94832071D02*
X119463971Y-94474928D01*
X119463971Y-94474928D02*
X119535399Y-94332071D01*
X119535399Y-94332071D02*
X119606828Y-94260642D01*
X119606828Y-94260642D02*
X119749685Y-94189213D01*
X119749685Y-94189213D02*
X120106828Y-94189213D01*
X120106828Y-94189213D02*
X120249685Y-94260642D01*
X120249685Y-94260642D02*
X120321114Y-94332071D01*
X120321114Y-94332071D02*
X120392542Y-94474928D01*
X120392542Y-94474928D02*
X120392542Y-94832071D01*
X120392542Y-94832071D02*
X120321114Y-94974928D01*
X120321114Y-94974928D02*
X120249685Y-95046356D01*
D11*
X123889214Y-95439214D02*
X120927794Y-95439214D01*
X120927794Y-95939214D02*
X123889214Y-95939214D01*
X121514214Y-95439214D02*
X121514214Y-95939214D01*
X121514214Y-95439214D02*
X122100635Y-96565718D01*
X121514214Y-95439214D02*
X120927793Y-96565718D01*
X121514214Y-95939214D02*
X120927793Y-94812710D01*
X121514214Y-95939214D02*
X122100635Y-94812710D01*
D10*
X100085399Y-99528498D02*
X100013971Y-99457070D01*
X100013971Y-99457070D02*
X99942542Y-99314213D01*
X99942542Y-99314213D02*
X99942542Y-98957070D01*
X99942542Y-98957070D02*
X100013971Y-98814213D01*
X100013971Y-98814213D02*
X100085399Y-98742784D01*
X100085399Y-98742784D02*
X100228256Y-98671355D01*
X100228256Y-98671355D02*
X100371114Y-98671355D01*
X100371114Y-98671355D02*
X100585399Y-98742784D01*
X100585399Y-98742784D02*
X101442542Y-99599927D01*
X101442542Y-99599927D02*
X101442542Y-98671355D01*
X101299685Y-98028499D02*
X101371114Y-97957070D01*
X101371114Y-97957070D02*
X101442542Y-98028499D01*
X101442542Y-98028499D02*
X101371114Y-98099927D01*
X101371114Y-98099927D02*
X101299685Y-98028499D01*
X101299685Y-98028499D02*
X101442542Y-98028499D01*
X99942542Y-97457070D02*
X99942542Y-96457070D01*
X99942542Y-96457070D02*
X101442542Y-97099927D01*
X99942542Y-95171356D02*
X99942542Y-95885642D01*
X99942542Y-95885642D02*
X100656828Y-95957070D01*
X100656828Y-95957070D02*
X100585399Y-95885642D01*
X100585399Y-95885642D02*
X100513971Y-95742785D01*
X100513971Y-95742785D02*
X100513971Y-95385642D01*
X100513971Y-95385642D02*
X100585399Y-95242785D01*
X100585399Y-95242785D02*
X100656828Y-95171356D01*
X100656828Y-95171356D02*
X100799685Y-95099927D01*
X100799685Y-95099927D02*
X101156828Y-95099927D01*
X101156828Y-95099927D02*
X101299685Y-95171356D01*
X101299685Y-95171356D02*
X101371114Y-95242785D01*
X101371114Y-95242785D02*
X101442542Y-95385642D01*
X101442542Y-95385642D02*
X101442542Y-95742785D01*
X101442542Y-95742785D02*
X101371114Y-95885642D01*
X101371114Y-95885642D02*
X101299685Y-95957070D01*
D11*
X104839214Y-95939214D02*
X101977794Y-95939214D01*
X101977794Y-98689214D02*
X104839214Y-98689214D01*
X102564214Y-95939214D02*
X102564214Y-98689214D01*
X102564214Y-95939214D02*
X103150635Y-97065718D01*
X102564214Y-95939214D02*
X101977793Y-97065718D01*
X102564214Y-98689214D02*
X101977793Y-97562710D01*
X102564214Y-98689214D02*
X103150635Y-97562710D01*
%TO.C,H2*%
D12*
X164415000Y-105715000D02*
G75*
G02*
X160015000Y-105715000I-2200000J0D01*
G01*
X160015000Y-105715000D02*
G75*
G02*
X164415000Y-105715000I2200000J0D01*
G01*
%TO.C,H1*%
X189919214Y-167559214D02*
G75*
G02*
X185519214Y-167559214I-2200000J0D01*
G01*
X185519214Y-167559214D02*
G75*
G02*
X189919214Y-167559214I2200000J0D01*
G01*
%TO.C,H8*%
X266464130Y-141665000D02*
G75*
G02*
X262064130Y-141665000I-2200000J0D01*
G01*
X262064130Y-141665000D02*
G75*
G02*
X266464130Y-141665000I2200000J0D01*
G01*
%TO.C,H4*%
X88415000Y-105665000D02*
G75*
G02*
X84015000Y-105665000I-2200000J0D01*
G01*
X84015000Y-105665000D02*
G75*
G02*
X88415000Y-105665000I2200000J0D01*
G01*
%TO.C,H3*%
X164415000Y-141665000D02*
G75*
G02*
X160015000Y-141665000I-2200000J0D01*
G01*
X160015000Y-141665000D02*
G75*
G02*
X164415000Y-141665000I2200000J0D01*
G01*
%TO.C,H5*%
X88415000Y-141665000D02*
G75*
G02*
X84015000Y-141665000I-2200000J0D01*
G01*
X84015000Y-141665000D02*
G75*
G02*
X88415000Y-141665000I2200000J0D01*
G01*
%TO.C,H9*%
X342464130Y-105665000D02*
G75*
G02*
X338064130Y-105665000I-2200000J0D01*
G01*
X338064130Y-105665000D02*
G75*
G02*
X342464130Y-105665000I2200000J0D01*
G01*
%TO.C,H6*%
X240964130Y-167565000D02*
G75*
G02*
X236564130Y-167565000I-2200000J0D01*
G01*
X236564130Y-167565000D02*
G75*
G02*
X240964130Y-167565000I2200000J0D01*
G01*
%TO.C,H7*%
X266464130Y-105715000D02*
G75*
G02*
X262064130Y-105715000I-2200000J0D01*
G01*
X262064130Y-105715000D02*
G75*
G02*
X266464130Y-105715000I2200000J0D01*
G01*
%TO.C,H10*%
X342464130Y-141665000D02*
G75*
G02*
X338064130Y-141665000I-2200000J0D01*
G01*
X338064130Y-141665000D02*
G75*
G02*
X342464130Y-141665000I2200000J0D01*
G01*
%TD*%
M02*
