%TF.GenerationSoftware,KiCad,Pcbnew,10.0.4*%
%TF.CreationDate,2026-07-18T00:10:43-04:00*%
%TF.ProjectId,pcb,7063622e-6b69-4636-9164-5f7063625858,rev?*%
%TF.SameCoordinates,Original*%
%TF.FileFunction,AssemblyDrawing,Bot*%
%FSLAX46Y46*%
G04 Gerber Fmt 4.6, Leading zero omitted, Abs format (unit mm)*
G04 Created by KiCad (PCBNEW 10.0.4) date 2026-07-18 00:10:43*
%MOMM*%
%LPD*%
G01*
G04 APERTURE LIST*
%ADD10C,0.150000*%
%ADD11C,0.040000*%
%ADD12C,0.100000*%
G04 APERTURE END LIST*
D10*
X219042621Y-126441341D02*
X219661210Y-126798484D01*
X219661210Y-126798484D02*
X219808738Y-126828673D01*
X219808738Y-126828673D02*
X219938835Y-126793814D01*
X219938835Y-126793814D02*
X220051503Y-126693905D01*
X220051503Y-126693905D02*
X220099122Y-126611427D01*
X219408646Y-127807367D02*
X219694360Y-127312495D01*
X219551503Y-127559931D02*
X218685478Y-127059931D01*
X218685478Y-127059931D02*
X218856815Y-127048881D01*
X218856815Y-127048881D02*
X218986912Y-127014021D01*
X218986912Y-127014021D02*
X219075771Y-126955352D01*
X218233097Y-127843478D02*
X218185478Y-127925956D01*
X218185478Y-127925956D02*
X218179098Y-128032244D01*
X218179098Y-128032244D02*
X218196528Y-128097293D01*
X218196528Y-128097293D02*
X218255197Y-128186152D01*
X218255197Y-128186152D02*
X218396345Y-128322629D01*
X218396345Y-128322629D02*
X218602541Y-128441677D01*
X218602541Y-128441677D02*
X218791308Y-128495675D01*
X218791308Y-128495675D02*
X218897596Y-128502055D01*
X218897596Y-128502055D02*
X218962645Y-128484625D01*
X218962645Y-128484625D02*
X219051503Y-128425956D01*
X219051503Y-128425956D02*
X219099122Y-128343478D01*
X219099122Y-128343478D02*
X219105502Y-128237190D01*
X219105502Y-128237190D02*
X219088072Y-128172141D01*
X219088072Y-128172141D02*
X219029403Y-128083282D01*
X219029403Y-128083282D02*
X218888255Y-127946805D01*
X218888255Y-127946805D02*
X218682059Y-127827757D01*
X218682059Y-127827757D02*
X218493292Y-127773759D01*
X218493292Y-127773759D02*
X218387004Y-127767379D01*
X218387004Y-127767379D02*
X218321955Y-127784809D01*
X218321955Y-127784809D02*
X218233097Y-127843478D01*
D11*
X264322330Y-116280714D02*
X264322330Y-116429286D01*
X264582330Y-116355000D02*
X264322330Y-116355000D01*
X264582330Y-116515952D02*
X264322330Y-116515952D01*
X264446140Y-116515952D02*
X264446140Y-116664524D01*
X264582330Y-116664524D02*
X264322330Y-116664524D01*
X264322330Y-116763571D02*
X264322330Y-116924524D01*
X264322330Y-116924524D02*
X264421378Y-116837857D01*
X264421378Y-116837857D02*
X264421378Y-116875000D01*
X264421378Y-116875000D02*
X264433759Y-116899762D01*
X264433759Y-116899762D02*
X264446140Y-116912143D01*
X264446140Y-116912143D02*
X264470902Y-116924524D01*
X264470902Y-116924524D02*
X264532807Y-116924524D01*
X264532807Y-116924524D02*
X264557569Y-116912143D01*
X264557569Y-116912143D02*
X264569950Y-116899762D01*
X264569950Y-116899762D02*
X264582330Y-116875000D01*
X264582330Y-116875000D02*
X264582330Y-116800714D01*
X264582330Y-116800714D02*
X264569950Y-116775952D01*
X264569950Y-116775952D02*
X264557569Y-116763571D01*
%TO.C,SW16*%
D12*
X132114214Y-136764214D02*
X135714214Y-136764214D01*
X132114214Y-139864214D02*
X132114214Y-136764214D01*
X132114214Y-139864214D02*
X135714214Y-139864214D01*
X135714214Y-139864214D02*
X135714214Y-136764214D01*
%TO.C,SW63*%
X290764130Y-136765000D02*
X294364130Y-136765000D01*
X290764130Y-139865000D02*
X290764130Y-136765000D01*
X290764130Y-139865000D02*
X294364130Y-139865000D01*
X294364130Y-139865000D02*
X294364130Y-136765000D01*
%TO.C,SW3*%
X151164214Y-101714214D02*
X154764214Y-101714214D01*
X151164214Y-104814214D02*
X151164214Y-101714214D01*
X151164214Y-104814214D02*
X154764214Y-104814214D01*
X154764214Y-104814214D02*
X154764214Y-101714214D01*
%TO.C,SW64*%
X309814130Y-137265000D02*
X313414130Y-137265000D01*
X309814130Y-140365000D02*
X309814130Y-137265000D01*
X309814130Y-140365000D02*
X313414130Y-140365000D01*
X313414130Y-140365000D02*
X313414130Y-137265000D01*
%TO.C,SW62*%
X271714130Y-139815000D02*
X275314130Y-139815000D01*
X271714130Y-142915000D02*
X271714130Y-139815000D01*
X271714130Y-142915000D02*
X275314130Y-142915000D01*
X275314130Y-142915000D02*
X275314130Y-139815000D01*
%TO.C,SW4*%
X132114214Y-98664214D02*
X135714214Y-98664214D01*
X132114214Y-101764214D02*
X132114214Y-98664214D01*
X132114214Y-101764214D02*
X135714214Y-101764214D01*
X135714214Y-101764214D02*
X135714214Y-98664214D01*
%TO.C,SW68*%
X247844903Y-163969047D02*
X251322237Y-163037298D01*
X248647243Y-166963417D02*
X247844903Y-163969047D01*
X248647243Y-166963417D02*
X252124576Y-166031669D01*
X252124576Y-166031669D02*
X251322237Y-163037298D01*
%TO.C,SW12*%
X94014214Y-120964214D02*
X97614214Y-120964214D01*
X94014214Y-124064214D02*
X94014214Y-120964214D01*
X94014214Y-124064214D02*
X97614214Y-124064214D01*
X97614214Y-124064214D02*
X97614214Y-120964214D01*
%TO.C,SW65*%
X328864130Y-140015000D02*
X332464130Y-140015000D01*
X328864130Y-143115000D02*
X328864130Y-140015000D01*
X328864130Y-143115000D02*
X332464130Y-143115000D01*
X332464130Y-143115000D02*
X332464130Y-140015000D01*
%TO.C,SW20*%
X195511937Y-173666925D02*
X196822054Y-170857370D01*
X195511937Y-173666925D02*
X198774646Y-175188350D01*
X196822054Y-170857370D02*
X200084761Y-172378796D01*
X198774646Y-175188350D02*
X200084761Y-172378796D01*
%TO.C,SW56*%
X271714130Y-120765000D02*
X275314130Y-120765000D01*
X271714130Y-123865000D02*
X271714130Y-120765000D01*
X271714130Y-123865000D02*
X275314130Y-123865000D01*
X275314130Y-123865000D02*
X275314130Y-120765000D01*
%TO.C,SW18*%
X94014214Y-140014214D02*
X97614214Y-140014214D01*
X94014214Y-143114214D02*
X94014214Y-140014214D01*
X94014214Y-143114214D02*
X97614214Y-143114214D01*
X97614214Y-143114214D02*
X97614214Y-140014214D01*
%TO.C,SW67*%
X226370281Y-172365974D02*
X229632988Y-170844548D01*
X227680398Y-175175528D02*
X226370281Y-172365974D01*
X227680398Y-175175528D02*
X230943106Y-173654103D01*
X230943106Y-173654103D02*
X229632988Y-170844548D01*
%TO.C,SW14*%
X170214214Y-139814214D02*
X173814214Y-139814214D01*
X170214214Y-142914214D02*
X170214214Y-139814214D01*
X170214214Y-142914214D02*
X173814214Y-142914214D01*
X173814214Y-142914214D02*
X173814214Y-139814214D01*
%TO.C,SW54*%
X347914130Y-101915000D02*
X351514130Y-101915000D01*
X347914130Y-105015000D02*
X347914130Y-101915000D01*
X347914130Y-105015000D02*
X351514130Y-105015000D01*
X351514130Y-105015000D02*
X351514130Y-101915000D01*
%TO.C,SW13*%
X74964214Y-120964214D02*
X78564214Y-120964214D01*
X74964214Y-124064214D02*
X74964214Y-120964214D01*
X74964214Y-124064214D02*
X78564214Y-124064214D01*
X78564214Y-124064214D02*
X78564214Y-120964214D01*
%TO.C,SW7*%
X74964214Y-101914214D02*
X78564214Y-101914214D01*
X74964214Y-105014214D02*
X74964214Y-101914214D01*
X74964214Y-105014214D02*
X78564214Y-105014214D01*
X78564214Y-105014214D02*
X78564214Y-101914214D01*
%TO.C,SW53*%
X328864130Y-101915000D02*
X332464130Y-101915000D01*
X328864130Y-105015000D02*
X328864130Y-101915000D01*
X328864130Y-105015000D02*
X332464130Y-105015000D01*
X332464130Y-105015000D02*
X332464130Y-101915000D01*
%TO.C,SW10*%
X132114214Y-117694214D02*
X135714214Y-117694214D01*
X132114214Y-120794214D02*
X132114214Y-117694214D01*
X132114214Y-120794214D02*
X135714214Y-120794214D01*
X135714214Y-120794214D02*
X135714214Y-117694214D01*
%TO.C,SW55*%
X252664130Y-120765000D02*
X256264130Y-120765000D01*
X252664130Y-123865000D02*
X252664130Y-120765000D01*
X252664130Y-123865000D02*
X256264130Y-123865000D01*
X256264130Y-123865000D02*
X256264130Y-120765000D01*
%TO.C,SW51*%
X290764130Y-98665000D02*
X294364130Y-98665000D01*
X290764130Y-101765000D02*
X290764130Y-98665000D01*
X290764130Y-101765000D02*
X294364130Y-101765000D01*
X294364130Y-101765000D02*
X294364130Y-98665000D01*
%TO.C,SW19*%
X74964214Y-140014214D02*
X78564214Y-140014214D01*
X74964214Y-143114214D02*
X74964214Y-140014214D01*
X74964214Y-143114214D02*
X78564214Y-143114214D01*
X78564214Y-143114214D02*
X78564214Y-140014214D01*
%TO.C,J7*%
X226334130Y-109335000D02*
X237334130Y-109335000D01*
X226334130Y-144295000D02*
X226334130Y-109335000D01*
X237334130Y-144295000D02*
X226334130Y-144295000D01*
X237334130Y-144295000D02*
X237334130Y-109335000D01*
%TO.C,SW9*%
X151164214Y-120764214D02*
X154764214Y-120764214D01*
X151164214Y-123864214D02*
X151164214Y-120764214D01*
X151164214Y-123864214D02*
X154764214Y-123864214D01*
X154764214Y-123864214D02*
X154764214Y-120764214D01*
%TO.C,SW61*%
X252664130Y-139815000D02*
X256264130Y-139815000D01*
X252664130Y-142915000D02*
X252664130Y-139815000D01*
X252664130Y-142915000D02*
X256264130Y-142915000D01*
X256264130Y-142915000D02*
X256264130Y-139815000D01*
%TO.C,SW49*%
X252654130Y-101725000D02*
X256254130Y-101725000D01*
X252654130Y-104825000D02*
X252654130Y-101725000D01*
X252654130Y-104825000D02*
X256254130Y-104825000D01*
X256254130Y-104825000D02*
X256254130Y-101725000D01*
%TO.C,SW57*%
X290764130Y-117715000D02*
X294364130Y-117715000D01*
X290764130Y-120815000D02*
X290764130Y-117715000D01*
X290764130Y-120815000D02*
X294364130Y-120815000D01*
X294364130Y-120815000D02*
X294364130Y-117715000D01*
%TO.C,SW5*%
X113064214Y-99164214D02*
X116664214Y-99164214D01*
X113064214Y-102264214D02*
X113064214Y-99164214D01*
X113064214Y-102264214D02*
X116664214Y-102264214D01*
X116664214Y-102264214D02*
X116664214Y-99164214D01*
%TO.C,SW11*%
X113064214Y-118214214D02*
X116664214Y-118214214D01*
X113064214Y-121314214D02*
X113064214Y-118214214D01*
X113064214Y-121314214D02*
X116664214Y-121314214D01*
X116664214Y-121314214D02*
X116664214Y-118214214D01*
%TO.C,SW15*%
X151164214Y-139814214D02*
X154764214Y-139814214D01*
X151164214Y-142914214D02*
X151164214Y-139814214D01*
X151164214Y-142914214D02*
X154764214Y-142914214D01*
X154764214Y-142914214D02*
X154764214Y-139814214D01*
%TO.C,SW6*%
X94014214Y-101914214D02*
X97614214Y-101914214D01*
X94014214Y-105014214D02*
X94014214Y-101914214D01*
X94014214Y-105014214D02*
X97614214Y-105014214D01*
X97614214Y-105014214D02*
X97614214Y-101914214D01*
%TO.C,SW8*%
X170214214Y-120764214D02*
X173814214Y-120764214D01*
X170214214Y-123864214D02*
X170214214Y-120764214D01*
X170214214Y-123864214D02*
X173814214Y-123864214D01*
X173814214Y-123864214D02*
X173814214Y-120764214D01*
%TO.C,SW2*%
X170214214Y-101714214D02*
X173814214Y-101714214D01*
X170214214Y-104814214D02*
X170214214Y-101714214D01*
X170214214Y-104814214D02*
X173814214Y-104814214D01*
X173814214Y-104814214D02*
X173814214Y-101714214D01*
%TO.C,SW60*%
X347914130Y-120965000D02*
X351514130Y-120965000D01*
X347914130Y-124065000D02*
X347914130Y-120965000D01*
X347914130Y-124065000D02*
X351514130Y-124065000D01*
X351514130Y-124065000D02*
X351514130Y-120965000D01*
%TO.C,SW17*%
X113064214Y-137264214D02*
X116664214Y-137264214D01*
X113064214Y-140364214D02*
X113064214Y-137264214D01*
X113064214Y-140364214D02*
X116664214Y-140364214D01*
X116664214Y-140364214D02*
X116664214Y-137264214D01*
%TO.C,SW58*%
X309814130Y-118215000D02*
X313414130Y-118215000D01*
X309814130Y-121315000D02*
X309814130Y-118215000D01*
X309814130Y-121315000D02*
X313414130Y-121315000D01*
X313414130Y-121315000D02*
X313414130Y-118215000D01*
%TO.C,SW66*%
X347914130Y-140015000D02*
X351514130Y-140015000D01*
X347914130Y-143115000D02*
X347914130Y-140015000D01*
X347914130Y-143115000D02*
X351514130Y-143115000D01*
X351514130Y-143115000D02*
X351514130Y-140015000D01*
%TO.C,SW50*%
X271704130Y-101725000D02*
X275304130Y-101725000D01*
X271704130Y-104825000D02*
X271704130Y-101725000D01*
X271704130Y-104825000D02*
X275304130Y-104825000D01*
X275304130Y-104825000D02*
X275304130Y-101725000D01*
%TO.C,SW69*%
X271664130Y-160715000D02*
X275264130Y-160715000D01*
X271664130Y-163815000D02*
X271664130Y-160715000D01*
X271664130Y-163815000D02*
X275264130Y-163815000D01*
X275264130Y-163815000D02*
X275264130Y-160715000D01*
%TO.C,SW59*%
X328864130Y-120965000D02*
X332464130Y-120965000D01*
X328864130Y-124065000D02*
X328864130Y-120965000D01*
X328864130Y-124065000D02*
X332464130Y-124065000D01*
X332464130Y-124065000D02*
X332464130Y-120965000D01*
%TO.C,SW52*%
X309814130Y-99165000D02*
X313414130Y-99165000D01*
X309814130Y-102265000D02*
X309814130Y-99165000D01*
X309814130Y-102265000D02*
X313414130Y-102265000D01*
X313414130Y-102265000D02*
X313414130Y-99165000D01*
%TO.C,J1*%
X189139214Y-109359214D02*
X200139214Y-109359214D01*
X189139214Y-144319214D02*
X189139214Y-109359214D01*
X200139214Y-144319214D02*
X189139214Y-144319214D01*
X200139214Y-144319214D02*
X200139214Y-109359214D01*
%TO.C,SW21*%
X174365160Y-166020985D02*
X175167499Y-163026615D01*
X174365160Y-166020985D02*
X177842493Y-166952734D01*
X175167499Y-163026615D02*
X178644832Y-163958365D01*
X177842493Y-166952734D02*
X178644832Y-163958365D01*
%TO.C,SW22*%
X151214214Y-160714214D02*
X154814214Y-160714214D01*
X151214214Y-163814214D02*
X151214214Y-160714214D01*
X151214214Y-163814214D02*
X154814214Y-163814214D01*
X154814214Y-163814214D02*
X154814214Y-160714214D01*
%TD*%
M02*
