%TF.GenerationSoftware,KiCad,Pcbnew,10.0.4*%
%TF.CreationDate,2026-07-18T00:10:43-04:00*%
%TF.ProjectId,pcb,7063622e-6b69-4636-9164-5f7063625858,rev?*%
%TF.SameCoordinates,Original*%
%TF.FileFunction,Other,User*%
%FSLAX46Y46*%
G04 Gerber Fmt 4.6, Leading zero omitted, Abs format (unit mm)*
G04 Created by KiCad (PCBNEW 10.0.4) date 2026-07-18 00:10:43*
%MOMM*%
%LPD*%
G01*
G04 APERTURE LIST*
%ADD10C,0.050000*%
%ADD11C,0.100000*%
G04 APERTURE END LIST*
%TO.C,U9*%
D10*
X237713061Y-106997062D02*
X237444361Y-107265763D01*
X236115000Y-105399001D02*
X237713061Y-106997062D01*
X237882767Y-107704169D02*
X237444361Y-108142575D01*
X237444361Y-107265763D02*
X237882767Y-107704169D01*
X235846299Y-105667701D02*
X236115000Y-105399001D01*
X235407893Y-105229295D02*
X235846299Y-105667701D01*
X237713061Y-108411276D02*
X236115000Y-110009337D01*
X237444361Y-108142575D02*
X237713061Y-108411276D01*
X234969487Y-105667701D02*
X235407893Y-105229295D01*
X234700786Y-105399001D02*
X234969487Y-105667701D01*
X236115000Y-110009337D02*
X235846299Y-109740637D01*
X235846299Y-109740637D02*
X235407893Y-110179043D01*
X233371425Y-107265763D02*
X233102725Y-106997062D01*
X233102725Y-106997062D02*
X234700786Y-105399001D01*
X235407893Y-110179043D02*
X234969487Y-109740637D01*
X234969487Y-109740637D02*
X234700786Y-110009337D01*
X233371425Y-108142575D02*
X232933019Y-107704169D01*
X232933019Y-107704169D02*
X233371425Y-107265763D01*
X234700786Y-110009337D02*
X233102725Y-108411276D01*
X233102725Y-108411276D02*
X233371425Y-108142575D01*
%TO.C,L6*%
X241164670Y-134242294D02*
X243257706Y-136335330D01*
X242225330Y-137367706D01*
X240132294Y-135274670D01*
X241164670Y-134242294D01*
%TO.C,J5*%
X193765000Y-124895000D02*
X196465000Y-124895000D01*
X196465000Y-124895000D02*
X196465000Y-120395000D01*
X193765000Y-120395000D02*
X193765000Y-124895000D01*
X196465000Y-120395000D02*
X193765000Y-120395000D01*
%TO.C,J4*%
X198265000Y-120315000D02*
X198265000Y-117615000D01*
X198265000Y-117615000D02*
X193765000Y-117615000D01*
X193765000Y-120315000D02*
X198265000Y-120315000D01*
X193765000Y-117615000D02*
X193765000Y-120315000D01*
%TO.C,C55*%
X234255000Y-104215000D02*
X234255000Y-100815000D01*
X236215000Y-100815000D01*
X236215000Y-104215000D01*
X234255000Y-104215000D01*
%TO.C,C26*%
X183515000Y-112615000D02*
X183515000Y-110795000D01*
X184435000Y-110795000D01*
X184435000Y-112615000D01*
X183515000Y-112615000D01*
%TO.C,Q5*%
X239325000Y-108515000D02*
X240355000Y-108515000D01*
X239325000Y-109615000D02*
X239325000Y-108515000D01*
X240354999Y-107365000D02*
X242155001Y-107365000D01*
X240354999Y-110765000D02*
X240355000Y-109615000D01*
X240355000Y-108515000D02*
X240354999Y-107365000D01*
X240355000Y-109615000D02*
X239325000Y-109615000D01*
X242155000Y-107565000D02*
X243185000Y-107565000D01*
X242155000Y-108674999D02*
X242155000Y-109455001D01*
X242155000Y-109455001D02*
X243185000Y-109455001D01*
X242155000Y-110565000D02*
X242155001Y-110765000D01*
X242155001Y-107365000D02*
X242155000Y-107565000D01*
X242155001Y-110765000D02*
X240354999Y-110765000D01*
X243185000Y-107565000D02*
X243185000Y-108674999D01*
X243185000Y-108674999D02*
X242155000Y-108674999D01*
X243185000Y-109455001D02*
X243185000Y-110565000D01*
X243185000Y-110565000D02*
X242155000Y-110565000D01*
%TO.C,R26*%
X244425000Y-107635000D02*
X244425000Y-109495000D01*
X243485000Y-109495000D01*
X243485000Y-107635000D01*
X244425000Y-107635000D01*
%TO.C,C53*%
X231875000Y-105395000D02*
X231875000Y-102435000D01*
X233335000Y-102435000D01*
X233335000Y-105395000D01*
X231875000Y-105395000D01*
%TO.C,D8*%
X144864214Y-132314214D02*
X147164214Y-132314214D01*
X144864214Y-137014214D02*
X144864214Y-132314214D01*
X144864214Y-137014214D02*
X147164214Y-137014214D01*
X147164214Y-132314214D02*
X147164214Y-137014214D01*
%TO.C,R31*%
X232644949Y-109689731D02*
X231329731Y-111004949D01*
X230665051Y-110340269D01*
X231980269Y-109025051D01*
X232644949Y-109689731D01*
%TO.C,D15*%
X125864214Y-148264214D02*
X128164214Y-148264214D01*
X125864214Y-152964214D02*
X125864214Y-148264214D01*
X125864214Y-152964214D02*
X128164214Y-152964214D01*
X128164214Y-148264214D02*
X128164214Y-152964214D01*
%TO.C,H2*%
X164665000Y-105715000D02*
G75*
G02*
X159765000Y-105715000I-2450000J0D01*
G01*
X159765000Y-105715000D02*
G75*
G02*
X164665000Y-105715000I2450000J0D01*
G01*
%TO.C,C42*%
X239108198Y-138008736D02*
X237821264Y-136721802D01*
X238471802Y-136071264D01*
X239758736Y-137358198D01*
X239108198Y-138008736D01*
%TO.C,D19*%
X184241715Y-182810616D02*
X186228021Y-178550968D01*
X184241715Y-182810616D02*
X186326223Y-183782638D01*
X186228021Y-178550968D02*
X188312529Y-179522990D01*
X188312529Y-179522990D02*
X186326223Y-183782638D01*
%TO.C,U2*%
X188539340Y-107648529D02*
X188977746Y-107210123D01*
X188709046Y-106941422D02*
X190307107Y-105343361D01*
X188709046Y-108355636D02*
X188977746Y-108086935D01*
X188977746Y-107210123D02*
X188709046Y-106941422D01*
X188977746Y-108086935D02*
X188539340Y-107648529D01*
X190307107Y-105343361D02*
X190575808Y-105612061D01*
X190307107Y-109953697D02*
X188709046Y-108355636D01*
X190575808Y-105612061D02*
X191014214Y-105173655D01*
X190575808Y-109684997D02*
X190307107Y-109953697D01*
X191014214Y-105173655D02*
X191452620Y-105612061D01*
X191014214Y-110123403D02*
X190575808Y-109684997D01*
X191452620Y-105612061D02*
X191721321Y-105343361D01*
X191452620Y-109684997D02*
X191014214Y-110123403D01*
X191721321Y-105343361D02*
X193319382Y-106941422D01*
X191721321Y-109953697D02*
X191452620Y-109684997D01*
X193050682Y-107210123D02*
X193489088Y-107648529D01*
X193050682Y-108086935D02*
X193319382Y-108355636D01*
X193319382Y-106941422D02*
X193050682Y-107210123D01*
X193319382Y-108355636D02*
X191721321Y-109953697D01*
X193489088Y-107648529D02*
X193050682Y-108086935D01*
%TO.C,L8*%
X243954949Y-137039731D02*
X242639731Y-138354949D01*
X241975051Y-137690269D01*
X243290269Y-136375051D01*
X243954949Y-137039731D01*
%TO.C,C49*%
X235196264Y-130283198D02*
X236483198Y-128996264D01*
X237133736Y-129646802D01*
X235846802Y-130933736D01*
X235196264Y-130283198D01*
%TO.C,C17*%
X187209260Y-135405097D02*
X184805097Y-137809260D01*
X183419168Y-136423331D01*
X185823331Y-134019168D01*
X187209260Y-135405097D01*
%TO.C,SW46*%
X222408378Y-128157464D02*
X226297464Y-124268371D01*
X224812536Y-130561629D02*
X222408378Y-128157464D01*
X226297464Y-124268371D02*
X228701622Y-126672536D01*
X228701622Y-126672536D02*
X224812536Y-130561629D01*
%TO.C,R4*%
X183279214Y-109729214D02*
X183279214Y-111589214D01*
X182339214Y-111589214D01*
X182339214Y-109729214D01*
X183279214Y-109729214D01*
%TO.C,C8*%
X197451508Y-132744544D02*
X199544544Y-130651508D01*
X200576920Y-131683884D01*
X198483884Y-133776920D01*
X197451508Y-132744544D01*
%TO.C,C3*%
X191670478Y-126327412D02*
X192957412Y-125040478D01*
X193607950Y-125691016D01*
X192321016Y-126977950D01*
X191670478Y-126327412D01*
%TO.C,D10*%
X106864214Y-129614214D02*
X109164214Y-129614214D01*
X106864214Y-134314214D02*
X106864214Y-129614214D01*
X106864214Y-134314214D02*
X109164214Y-134314214D01*
X109164214Y-129614214D02*
X109164214Y-134314214D01*
%TO.C,C18*%
X198945478Y-140032412D02*
X200232412Y-138745478D01*
X200882950Y-139396016D01*
X199596016Y-140682950D01*
X198945478Y-140032412D01*
%TO.C,H1*%
X190169214Y-167559214D02*
G75*
G02*
X185269214Y-167559214I-2450000J0D01*
G01*
X185269214Y-167559214D02*
G75*
G02*
X190169214Y-167559214I2450000J0D01*
G01*
%TO.C,D12*%
X68364214Y-132364214D02*
X70664214Y-132364214D01*
X68364214Y-137064214D02*
X68364214Y-132364214D01*
X68364214Y-137064214D02*
X70664214Y-137064214D01*
X70664214Y-132364214D02*
X70664214Y-137064214D01*
%TO.C,D51*%
X284315000Y-129115000D02*
X286615000Y-129115000D01*
X284315000Y-133815000D02*
X284315000Y-129115000D01*
X284315000Y-133815000D02*
X286615000Y-133815000D01*
X286615000Y-129115000D02*
X286615000Y-133815000D01*
%TO.C,C9*%
X199496016Y-135115478D02*
X200782950Y-136402412D01*
X200132412Y-137052950D01*
X198845478Y-135766016D01*
X199496016Y-135115478D01*
%TO.C,D47*%
X322915000Y-112915000D02*
X325215000Y-112915000D01*
X322915000Y-117615000D02*
X322915000Y-112915000D01*
X322915000Y-117615000D02*
X325215000Y-117615000D01*
X325215000Y-112915000D02*
X325215000Y-117615000D01*
%TO.C,C4*%
X188936823Y-129297361D02*
X187649889Y-128010427D01*
X188300427Y-127359889D01*
X189587361Y-128646823D01*
X188936823Y-129297361D01*
%TO.C,R25*%
X221735000Y-105395000D02*
X223595000Y-105395000D01*
X223595000Y-106335000D01*
X221735000Y-106335000D01*
X221735000Y-105395000D01*
%TO.C,J3*%
D11*
X197030350Y-97165214D02*
X206070350Y-97165214D01*
X197030350Y-103665214D02*
X197030350Y-97165214D01*
X197030350Y-103665214D02*
X206070350Y-103665214D01*
X206070350Y-103665214D02*
X206070350Y-97165214D01*
D10*
%TO.C,L2*%
X196113945Y-125109265D02*
X197429163Y-126424483D01*
X196764483Y-127089163D01*
X195449265Y-125773945D01*
X196113945Y-125109265D01*
%TO.C,Q1*%
X183484214Y-107714214D02*
X184514214Y-107714214D01*
X183484214Y-108824213D02*
X183484214Y-107714214D01*
X183484214Y-109604215D02*
X184514214Y-109604215D01*
X183484214Y-110714214D02*
X183484214Y-109604215D01*
X184514213Y-107514214D02*
X186314215Y-107514214D01*
X184514213Y-110914214D02*
X184514214Y-110714214D01*
X184514214Y-107714214D02*
X184514213Y-107514214D01*
X184514214Y-108824213D02*
X183484214Y-108824213D01*
X184514214Y-109604215D02*
X184514214Y-108824213D01*
X184514214Y-110714214D02*
X183484214Y-110714214D01*
X186314214Y-108664214D02*
X187344214Y-108664214D01*
X186314214Y-109764214D02*
X186314215Y-110914214D01*
X186314215Y-107514214D02*
X186314214Y-108664214D01*
X186314215Y-110914214D02*
X184514213Y-110914214D01*
X187344214Y-108664214D02*
X187344214Y-109764214D01*
X187344214Y-109764214D02*
X186314214Y-109764214D01*
%TO.C,R11*%
X203718630Y-127233848D02*
X205033848Y-125918630D01*
X205698528Y-126583310D01*
X204383310Y-127898528D01*
X203718630Y-127233848D01*
%TO.C,J10*%
X222150000Y-131725001D02*
X216060001Y-131725000D01*
X216060000Y-123104999D01*
X222150000Y-123105001D01*
X222150000Y-131725001D01*
%TO.C,R3*%
X198284214Y-105344214D02*
X200144214Y-105344214D01*
X200144214Y-106284214D01*
X198284214Y-106284214D01*
X198284214Y-105344214D01*
%TO.C,C38*%
X242086213Y-133585675D02*
X243373147Y-134872609D01*
X242722609Y-135523147D01*
X241435675Y-134236213D01*
X242086213Y-133585675D01*
%TO.C,D50*%
X265515000Y-132315000D02*
X267815000Y-132315000D01*
X265515000Y-137015000D02*
X265515000Y-132315000D01*
X265515000Y-137015000D02*
X267815000Y-137015000D01*
X267815000Y-132315000D02*
X267815000Y-137015000D01*
%TO.C,D44*%
X266115000Y-113115000D02*
X268415000Y-113115000D01*
X266115000Y-117815000D02*
X266115000Y-113115000D01*
X266115000Y-117815000D02*
X268415000Y-117815000D01*
X268415000Y-113115000D02*
X268415000Y-117815000D01*
%TO.C,Y2*%
X190538173Y-131036600D02*
X188911828Y-129410255D01*
X191740255Y-126581828D02*
X188911828Y-129410255D01*
X193366600Y-128208173D02*
X190538173Y-131036600D01*
X193366600Y-128208173D02*
X191740255Y-126581828D01*
%TO.C,D61*%
X225829595Y-185221189D02*
X227914102Y-184249165D01*
X227815898Y-189480835D02*
X225829595Y-185221189D01*
X227815898Y-189480835D02*
X229900405Y-188508811D01*
X227914102Y-184249165D02*
X229900405Y-188508811D01*
%TO.C,C25*%
X193119168Y-110123331D02*
X195523331Y-107719168D01*
X196909260Y-109105097D01*
X194505097Y-111509260D01*
X193119168Y-110123331D01*
%TO.C,D55*%
X247255000Y-151015000D02*
X249555000Y-151015000D01*
X247255000Y-155715000D02*
X247255000Y-151015000D01*
X247255000Y-155715000D02*
X249555000Y-155715000D01*
X249555000Y-151015000D02*
X249555000Y-155715000D01*
%TO.C,C45*%
X233574117Y-128660046D02*
X231169954Y-126255883D01*
X232555883Y-124869954D01*
X234960046Y-127274117D01*
X233574117Y-128660046D01*
%TO.C,C40*%
X232833736Y-140946802D02*
X231546802Y-142233736D01*
X230896264Y-141583198D01*
X232183198Y-140296264D01*
X232833736Y-140946802D01*
%TO.C,C54*%
X227275000Y-113015000D02*
X227275000Y-109615000D01*
X229235000Y-109615000D01*
X229235000Y-113015000D01*
X227275000Y-113015000D01*
%TO.C,R28*%
X245835000Y-109495000D02*
X245835000Y-107635000D01*
X246775000Y-107635000D01*
X246775000Y-109495000D01*
X245835000Y-109495000D01*
%TO.C,C22*%
X191794214Y-100864213D02*
X191794214Y-104264213D01*
X189834214Y-104264213D01*
X189834214Y-100864213D01*
X191794214Y-100864213D01*
%TO.C,D18*%
X68364214Y-151514214D02*
X70664214Y-151514214D01*
X68364214Y-156214214D02*
X68364214Y-151514214D01*
X68364214Y-156214214D02*
X70664214Y-156214214D01*
X70664214Y-151514214D02*
X70664214Y-156214214D01*
%TO.C,R8*%
X203584214Y-119294214D02*
X205444214Y-119294214D01*
X205444214Y-120234214D01*
X203584214Y-120234214D01*
X203584214Y-119294214D01*
%TO.C,Y4*%
X237187614Y-132463959D02*
X238813959Y-130837614D01*
X240016041Y-135292386D02*
X237187614Y-132463959D01*
X240016041Y-135292386D02*
X241642386Y-133666041D01*
X241642386Y-133666041D02*
X238813959Y-130837614D01*
%TO.C,C1*%
X200170478Y-131117412D02*
X200821016Y-131767950D01*
X202107950Y-130481016D01*
X201457412Y-129830478D01*
X200170478Y-131117412D01*
%TO.C,D43*%
X250462500Y-116495000D02*
X255162500Y-116495000D01*
X250462500Y-118795000D02*
X250462500Y-116495000D01*
X255162500Y-118795000D02*
X250462500Y-118795000D01*
X255162500Y-118795000D02*
X255162500Y-116495000D01*
%TO.C,C16*%
X188332412Y-133382950D02*
X187045478Y-132096016D01*
X187696016Y-131445478D01*
X188982950Y-132732412D01*
X188332412Y-133382950D01*
%TO.C,TP2*%
X216805000Y-119715000D02*
X216805000Y-122715000D01*
X216805000Y-119715000D02*
X219805000Y-119715000D01*
X219805000Y-122715000D02*
X216805000Y-122715000D01*
X219805000Y-122715000D02*
X219805000Y-119715000D01*
%TO.C,D62*%
X244745961Y-176892718D02*
X246967591Y-176297432D01*
X245962409Y-181432568D02*
X244745961Y-176892718D01*
X245962409Y-181432568D02*
X248184039Y-180837282D01*
X246967591Y-176297432D02*
X248184039Y-180837282D01*
%TO.C,U1*%
X199578175Y-134914214D02*
X193214214Y-128550253D01*
X186850253Y-134914214D01*
X193214214Y-141278175D01*
X199578175Y-134914214D01*
%TO.C,SW24*%
X203314214Y-109914214D02*
X203314214Y-116914214D01*
X203314214Y-116914214D02*
X205564214Y-116914214D01*
X205564214Y-108414214D02*
X205564214Y-109914214D01*
X205564214Y-109914214D02*
X203314214Y-109914214D01*
X205564214Y-116914214D02*
X205564214Y-118414214D01*
X205564214Y-118414214D02*
X210064214Y-118414214D01*
X210064214Y-108414214D02*
X205564214Y-108414214D01*
X210064214Y-110164214D02*
X210064214Y-108414214D01*
X210064214Y-116664214D02*
X210564214Y-116664214D01*
X210064214Y-118414214D02*
X210064214Y-116664214D01*
X210314214Y-110164214D02*
X210064214Y-110164214D01*
X210314214Y-110914214D02*
X210314214Y-110164214D01*
X210564214Y-115914214D02*
X212064214Y-115914214D01*
X210564214Y-116664214D02*
X210564214Y-115914214D01*
X212064214Y-110914214D02*
X210314214Y-110914214D01*
X212064214Y-115914214D02*
X212064214Y-110914214D01*
%TO.C,C13*%
X190432950Y-138506016D02*
X189146016Y-139792950D01*
X188495478Y-139142412D01*
X189782412Y-137855478D01*
X190432950Y-138506016D01*
%TO.C,D17*%
X87864214Y-151514214D02*
X90164214Y-151514214D01*
X87864214Y-156214214D02*
X87864214Y-151514214D01*
X87864214Y-156214214D02*
X90164214Y-156214214D01*
X90164214Y-151514214D02*
X90164214Y-156214214D01*
%TO.C,R1*%
X186051508Y-111944544D02*
X188144544Y-109851508D01*
X189176920Y-110883884D01*
X187083884Y-112976920D01*
X186051508Y-111944544D01*
%TO.C,C36*%
X241733198Y-133733736D02*
X240446264Y-132446802D01*
X241096802Y-131796264D01*
X242383736Y-133083198D01*
X241733198Y-133733736D01*
%TO.C,C32*%
X228246802Y-140496264D02*
X229533736Y-141783198D01*
X228883198Y-142433736D01*
X227596264Y-141146802D01*
X228246802Y-140496264D01*
%TO.C,H8*%
X266714130Y-141665000D02*
G75*
G02*
X261814130Y-141665000I-2450000J0D01*
G01*
X261814130Y-141665000D02*
G75*
G02*
X266714130Y-141665000I2450000J0D01*
G01*
%TO.C,TH3*%
X264934130Y-115685000D02*
X264934130Y-117545000D01*
X263994130Y-117545000D01*
X263994130Y-115685000D01*
X264934130Y-115685000D01*
%TO.C,D11*%
X87864214Y-132364214D02*
X90164214Y-132364214D01*
X87864214Y-137064214D02*
X87864214Y-132364214D01*
X87864214Y-137064214D02*
X90164214Y-137064214D01*
X90164214Y-132364214D02*
X90164214Y-137064214D01*
%TO.C,C34*%
X237746802Y-141146264D02*
X239033736Y-142433198D01*
X238383198Y-143083736D01*
X237096264Y-141796802D01*
X237746802Y-141146264D01*
%TO.C,Q6*%
X232073073Y-114437236D02*
X232886246Y-113624064D01*
X232157926Y-112895744D02*
X232935744Y-112117926D01*
X232886246Y-113624064D02*
X232157926Y-112895744D01*
X232935744Y-112117926D02*
X233664064Y-112846246D01*
X233345866Y-115710029D02*
X232073073Y-114437236D01*
X233487287Y-115568607D02*
X233345866Y-115710029D01*
X233664064Y-112846246D02*
X234477236Y-112033073D01*
X234215607Y-116296927D02*
X233487287Y-115568607D01*
X234272175Y-114783719D02*
X235000495Y-115512039D01*
X234477236Y-112033073D02*
X235750029Y-113305866D01*
X234823719Y-114232175D02*
X234272175Y-114783719D01*
X235000495Y-115512039D02*
X234215607Y-116296927D01*
X235552039Y-114960495D02*
X234823719Y-114232175D01*
X235608607Y-113447287D02*
X236336927Y-114175607D01*
X235750029Y-113305866D02*
X235608607Y-113447287D01*
X236336927Y-114175607D02*
X235552039Y-114960495D01*
%TO.C,D58*%
X304115000Y-148915000D02*
X306415000Y-148915000D01*
X304115000Y-153615000D02*
X304115000Y-148915000D01*
X304115000Y-153615000D02*
X306415000Y-153615000D01*
X306415000Y-148915000D02*
X306415000Y-153615000D01*
%TO.C,U4*%
X221475000Y-122165000D02*
X221475001Y-119364999D01*
X221475001Y-119364999D02*
X222905000Y-119365002D01*
X222904999Y-119015001D02*
X226404999Y-119014999D01*
X222904999Y-122165000D02*
X221475000Y-122165000D01*
X222905000Y-119365002D02*
X222904999Y-119015001D01*
X222905001Y-122515001D02*
X222904999Y-122165000D01*
X226404999Y-119014999D02*
X226405001Y-119365000D01*
X226405000Y-122164998D02*
X226405001Y-122514999D01*
X226405001Y-119365000D02*
X227835000Y-119365000D01*
X226405001Y-122514999D02*
X222905001Y-122515001D01*
X227834999Y-122165001D02*
X226405000Y-122164998D01*
X227835000Y-119365000D02*
X227834999Y-122165001D01*
%TO.C,D57*%
X284915000Y-148515000D02*
X287215000Y-148515000D01*
X284915000Y-153215000D02*
X284915000Y-148515000D01*
X284915000Y-153215000D02*
X287215000Y-153215000D01*
X287215000Y-148515000D02*
X287215000Y-153215000D01*
%TO.C,R27*%
X234790269Y-111654949D02*
X233475051Y-110339731D01*
X234139731Y-109675051D01*
X235454949Y-110990269D01*
X234790269Y-111654949D01*
%TO.C,C43*%
X239584670Y-134977294D02*
X241677706Y-137070330D01*
X240645330Y-138102706D01*
X238552294Y-136009670D01*
X239584670Y-134977294D01*
%TO.C,D54*%
X341515000Y-132315000D02*
X343815000Y-132315000D01*
X341515000Y-137015000D02*
X341515000Y-132315000D01*
X341515000Y-137015000D02*
X343815000Y-137015000D01*
X343815000Y-132315000D02*
X343815000Y-137015000D01*
%TO.C,D48*%
X341715000Y-113515000D02*
X344015000Y-113515000D01*
X341715000Y-118215000D02*
X341715000Y-113515000D01*
X341715000Y-118215000D02*
X344015000Y-118215000D01*
X344015000Y-113515000D02*
X344015000Y-118215000D01*
%TO.C,R5*%
X195804163Y-107288945D02*
X194488945Y-108604163D01*
X193824265Y-107939483D01*
X195139483Y-106624265D01*
X195804163Y-107288945D01*
%TO.C,C2*%
X204182950Y-136096016D02*
X203532412Y-135445478D01*
X202245478Y-136732412D01*
X202896016Y-137382950D01*
X204182950Y-136096016D01*
%TO.C,J9*%
X230064130Y-120365000D02*
X230064130Y-124865000D01*
X230064130Y-124865000D02*
X232764130Y-124865000D01*
X232764130Y-120365000D02*
X230064130Y-120365000D01*
X232764130Y-124865000D02*
X232764130Y-120365000D01*
%TO.C,R24*%
X225935000Y-105395000D02*
X227795000Y-105395000D01*
X227795000Y-106335000D01*
X225935000Y-106335000D01*
X225935000Y-105395000D01*
%TO.C,D6*%
X68864214Y-113514214D02*
X71164214Y-113514214D01*
X68864214Y-118214214D02*
X68864214Y-113514214D01*
X68864214Y-118214214D02*
X71164214Y-118214214D01*
X71164214Y-113514214D02*
X71164214Y-118214214D01*
%TO.C,U4*%
X198370030Y-120949929D02*
X200349929Y-118970030D01*
X199133705Y-122208579D02*
X199381193Y-121961092D01*
X199381193Y-121961092D02*
X198370030Y-120949929D01*
X200349929Y-118970030D02*
X201361092Y-119981193D01*
X201361092Y-119981193D02*
X201608579Y-119733705D01*
X201608579Y-119733705D02*
X204083453Y-122208579D01*
X201608579Y-124683453D02*
X199133705Y-122208579D01*
X201856066Y-124435965D02*
X201608579Y-124683453D01*
X202867229Y-125447128D02*
X201856066Y-124435965D01*
X203835965Y-122456066D02*
X204847128Y-123467229D01*
X204083453Y-122208579D02*
X203835965Y-122456066D01*
X204847128Y-123467229D02*
X202867229Y-125447128D01*
%TO.C,H4*%
X88665000Y-105665000D02*
G75*
G02*
X83765000Y-105665000I-2450000J0D01*
G01*
X83765000Y-105665000D02*
G75*
G02*
X88665000Y-105665000I2450000J0D01*
G01*
%TO.C,BT3*%
X236764130Y-100615000D02*
X238164129Y-100615000D01*
X236764130Y-104615000D02*
X236764130Y-100615000D01*
X238164129Y-100615000D02*
X238164130Y-98165000D01*
X238164129Y-104615000D02*
X236764130Y-104615000D01*
X238164130Y-98165000D02*
X242554130Y-98165000D01*
X238164130Y-107065000D02*
X238164129Y-104615000D01*
X242554130Y-98015000D02*
X246964130Y-98015000D01*
X242554130Y-98165000D02*
X242554130Y-98015000D01*
X242554130Y-107065000D02*
X238164130Y-107065000D01*
X242554130Y-107215000D02*
X242554130Y-107065000D01*
X246764130Y-100515000D02*
X246764130Y-104715000D01*
X246764130Y-104715000D02*
X246964130Y-104715000D01*
X246964130Y-98015000D02*
X246964130Y-100515000D01*
X246964130Y-100515000D02*
X246764130Y-100515000D01*
X246964130Y-104715000D02*
X246964130Y-107215000D01*
X246964130Y-107215000D02*
X242554130Y-107215000D01*
%TO.C,R9*%
X203084214Y-118044214D02*
X204944214Y-118044214D01*
X204944214Y-118984214D01*
X203084214Y-118984214D01*
X203084214Y-118044214D01*
%TO.C,D1*%
X164364214Y-113164214D02*
X166664214Y-113164214D01*
X164364214Y-117864214D02*
X164364214Y-113164214D01*
X164364214Y-117864214D02*
X166664214Y-117864214D01*
X166664214Y-113164214D02*
X166664214Y-117864214D01*
%TO.C,C20*%
X195435876Y-104403500D02*
X197528912Y-106496536D01*
X196496536Y-107528912D01*
X194403500Y-105435876D01*
X195435876Y-104403500D01*
%TO.C,C51*%
X228333736Y-133446802D02*
X227046802Y-134733736D01*
X226396264Y-134083198D01*
X227683198Y-132796264D01*
X228333736Y-133446802D01*
%TO.C,H3*%
X164665000Y-141665000D02*
G75*
G02*
X159765000Y-141665000I-2450000J0D01*
G01*
X159765000Y-141665000D02*
G75*
G02*
X164665000Y-141665000I2450000J0D01*
G01*
%TO.C,U10*%
X223301630Y-107814999D02*
X223501630Y-107815000D01*
X223301630Y-109915001D02*
X223301630Y-107814999D01*
X223501630Y-106815000D02*
X226501630Y-106815000D01*
X223501630Y-107815000D02*
X223501630Y-106815000D01*
X223501630Y-109915000D02*
X223301630Y-109915001D01*
X223501630Y-110915000D02*
X223501630Y-109915000D01*
X226501630Y-106815000D02*
X226501630Y-107815000D01*
X226501630Y-107815000D02*
X226701630Y-107814999D01*
X226501630Y-109915000D02*
X226501630Y-110915000D01*
X226501630Y-110915000D02*
X223501630Y-110915000D01*
X226701630Y-107814999D02*
X226701630Y-109915001D01*
X226701630Y-109915001D02*
X226501630Y-109915000D01*
%TO.C,C19*%
X196745478Y-137832412D02*
X198032412Y-136545478D01*
X198682950Y-137196016D01*
X197396016Y-138482950D01*
X196745478Y-137832412D01*
%TO.C,BT1*%
X179514214Y-98014214D02*
X183924214Y-98014214D01*
X179514214Y-100514214D02*
X179514214Y-98014214D01*
X179514214Y-104714214D02*
X179714214Y-104714214D01*
X179514214Y-107214214D02*
X179514214Y-104714214D01*
X179714214Y-100514214D02*
X179514214Y-100514214D01*
X179714214Y-104714214D02*
X179714214Y-100514214D01*
X183924214Y-98014214D02*
X183924214Y-98164214D01*
X183924214Y-98164214D02*
X188314214Y-98164214D01*
X183924214Y-107064214D02*
X183924214Y-107214214D01*
X183924214Y-107214214D02*
X179514214Y-107214214D01*
X188314214Y-98164214D02*
X188314215Y-100614214D01*
X188314214Y-107064214D02*
X183924214Y-107064214D01*
X188314215Y-100614214D02*
X189714214Y-100614214D01*
X188314215Y-104614214D02*
X188314214Y-107064214D01*
X189714214Y-100614214D02*
X189714214Y-104614214D01*
X189714214Y-104614214D02*
X188314215Y-104614214D01*
%TO.C,D21*%
X144864214Y-172314214D02*
X147164214Y-172314214D01*
X144864214Y-177014214D02*
X144864214Y-172314214D01*
X144864214Y-177014214D02*
X147164214Y-177014214D01*
X147164214Y-172314214D02*
X147164214Y-177014214D01*
%TO.C,R22*%
X221125000Y-118685000D02*
X221125000Y-120545000D01*
X220185000Y-120545000D01*
X220185000Y-118685000D01*
X221125000Y-118685000D01*
%TO.C,D4*%
X106864214Y-110764214D02*
X109164214Y-110764214D01*
X106864214Y-115464214D02*
X106864214Y-110764214D01*
X106864214Y-115464214D02*
X109164214Y-115464214D01*
X109164214Y-110764214D02*
X109164214Y-115464214D01*
%TO.C,D63*%
X265715000Y-172315001D02*
X268015000Y-172315000D01*
X265715000Y-177015000D02*
X265715000Y-172315001D01*
X265715000Y-177015000D02*
X268015000Y-177014999D01*
X268015000Y-172315000D02*
X268015000Y-177014999D01*
%TO.C,D2*%
X144864214Y-113164214D02*
X147164214Y-113164214D01*
X144864214Y-117864214D02*
X144864214Y-113164214D01*
X144864214Y-117864214D02*
X147164214Y-117864214D01*
X147164214Y-113164214D02*
X147164214Y-117864214D01*
%TO.C,C5*%
X192380478Y-127007412D02*
X193031016Y-127657950D01*
X194317950Y-126371016D01*
X193667412Y-125720478D01*
X192380478Y-127007412D01*
%TO.C,C14*%
X197277950Y-129601016D02*
X195991016Y-130887950D01*
X195340478Y-130237412D01*
X196627412Y-128950478D01*
X197277950Y-129601016D01*
%TO.C,C6*%
X186428331Y-134634260D02*
X184024168Y-132230097D01*
X185410097Y-130844168D01*
X187814260Y-133248331D01*
X186428331Y-134634260D01*
%TO.C,C33*%
X232583198Y-144783736D02*
X231296264Y-143496802D01*
X231946802Y-142846264D01*
X233233736Y-144133198D01*
X232583198Y-144783736D01*
%TO.C,D14*%
X144864214Y-151314214D02*
X147164214Y-151314214D01*
X144864214Y-156014214D02*
X144864214Y-151314214D01*
X144864214Y-156014214D02*
X147164214Y-156014214D01*
X147164214Y-151314214D02*
X147164214Y-156014214D01*
%TO.C,C46*%
X221625000Y-117285000D02*
X224585000Y-117285000D01*
X224585000Y-118745000D01*
X221625000Y-118745000D01*
X221625000Y-117285000D01*
%TO.C,D49*%
X251015000Y-135575000D02*
X255715000Y-135575000D01*
X251015000Y-137875000D02*
X251015000Y-135575000D01*
X255715000Y-137875000D02*
X251015000Y-137875000D01*
X255715000Y-137875000D02*
X255715000Y-135575000D01*
%TO.C,L3*%
X184744544Y-135076920D02*
X182651508Y-132983884D01*
X183683884Y-131951508D01*
X185776920Y-134044544D01*
X184744544Y-135076920D01*
%TO.C,C52*%
X231824117Y-129860046D02*
X229419954Y-127455883D01*
X230805883Y-126069954D01*
X233210046Y-128474117D01*
X231824117Y-129860046D01*
%TO.C,R7*%
X192939483Y-106404163D02*
X191624265Y-105088945D01*
X192288945Y-104424265D01*
X193604163Y-105739483D01*
X192939483Y-106404163D01*
%TO.C,L4*%
X228275051Y-140390269D02*
X229590269Y-139075051D01*
X230254949Y-139739731D01*
X228939731Y-141054949D01*
X228275051Y-140390269D01*
%TO.C,D9*%
X125864214Y-129114214D02*
X128164214Y-129114214D01*
X125864214Y-133814214D02*
X125864214Y-129114214D01*
X125864214Y-133814214D02*
X128164214Y-133814214D01*
X128164214Y-129114214D02*
X128164214Y-133814214D01*
%TO.C,TH1*%
X162484214Y-115684214D02*
X162484214Y-117544214D01*
X161544214Y-117544214D01*
X161544214Y-115684214D01*
X162484214Y-115684214D01*
%TO.C,SW48*%
X223039916Y-147989214D02*
X223039916Y-162189214D01*
X223039916Y-147989214D02*
X240539916Y-147989214D01*
X240539916Y-162189214D02*
X223039916Y-162189214D01*
X240539916Y-162189214D02*
X240539916Y-147989214D01*
%TO.C,SW23*%
X185439214Y-147989214D02*
X185439214Y-162189214D01*
X185439214Y-147989214D02*
X202939214Y-147989214D01*
X202939214Y-162189214D02*
X185439214Y-162189214D01*
X202939214Y-162189214D02*
X202939214Y-147989214D01*
%TO.C,C11*%
X191756016Y-139875478D02*
X193042950Y-141162412D01*
X192392412Y-141812950D01*
X191105478Y-140526016D01*
X191756016Y-139875478D01*
%TO.C,D52*%
X303515000Y-129715000D02*
X305815000Y-129715000D01*
X303515000Y-134415000D02*
X303515000Y-129715000D01*
X303515000Y-134415000D02*
X305815000Y-134415000D01*
X305815000Y-129715000D02*
X305815000Y-134415000D01*
%TO.C,D13*%
X163864214Y-151314214D02*
X166164214Y-151314214D01*
X163864214Y-156014214D02*
X163864214Y-151314214D01*
X163864214Y-156014214D02*
X166164214Y-156014214D01*
X166164214Y-151314214D02*
X166164214Y-156014214D01*
%TO.C,D60*%
X341715000Y-151515000D02*
X344015000Y-151515000D01*
X341715000Y-156215000D02*
X341715000Y-151515000D01*
X341715000Y-156215000D02*
X344015000Y-156215000D01*
X344015000Y-151515000D02*
X344015000Y-156215000D01*
%TO.C,L7*%
X234995330Y-127077706D02*
X232902294Y-124984670D01*
X233934670Y-123952294D01*
X236027706Y-126045330D01*
X234995330Y-127077706D01*
%TO.C,C56*%
X244647500Y-109475000D02*
X244647500Y-107655000D01*
X245567500Y-107655000D01*
X245567500Y-109475000D01*
X244647500Y-109475000D01*
%TO.C,C10*%
X188654260Y-136860097D02*
X186250097Y-139264260D01*
X184864168Y-137878331D01*
X187268331Y-135474168D01*
X188654260Y-136860097D01*
%TO.C,D56*%
X266115000Y-151115000D02*
X268415000Y-151115000D01*
X266115000Y-155815000D02*
X266115000Y-151115000D01*
X266115000Y-155815000D02*
X268415000Y-155815000D01*
X268415000Y-151115000D02*
X268415000Y-155815000D01*
%TO.C,H5*%
X88665000Y-141665000D02*
G75*
G02*
X83765000Y-141665000I-2450000J0D01*
G01*
X83765000Y-141665000D02*
G75*
G02*
X88665000Y-141665000I2450000J0D01*
G01*
%TO.C,C48*%
X236084670Y-138502294D02*
X238177706Y-140595330D01*
X237145330Y-141627706D01*
X235052294Y-139534670D01*
X236084670Y-138502294D01*
%TO.C,Q2*%
X191175736Y-114779899D02*
X191988909Y-113966727D01*
X191260589Y-113238407D02*
X192038407Y-112460589D01*
X191988909Y-113966727D02*
X191260589Y-113238407D01*
X192038407Y-112460589D02*
X192766727Y-113188909D01*
X192448529Y-116052692D02*
X191175736Y-114779899D01*
X192589950Y-115911270D02*
X192448529Y-116052692D01*
X192766727Y-113188909D02*
X193579899Y-112375736D01*
X193318270Y-116639590D02*
X192589950Y-115911270D01*
X193374838Y-115126382D02*
X194103158Y-115854702D01*
X193579899Y-112375736D02*
X194852692Y-113648529D01*
X193926382Y-114574838D02*
X193374838Y-115126382D01*
X194103158Y-115854702D02*
X193318270Y-116639590D01*
X194654702Y-115303158D02*
X193926382Y-114574838D01*
X194711270Y-113789950D02*
X195439590Y-114518270D01*
X194852692Y-113648529D02*
X194711270Y-113789950D01*
X195439590Y-114518270D02*
X194654702Y-115303158D01*
%TO.C,L5*%
X198782430Y-139947110D02*
X197467212Y-138631892D01*
X198131892Y-137967212D01*
X199447110Y-139282430D01*
X198782430Y-139947110D01*
%TO.C,D59*%
X322915000Y-151315000D02*
X325215000Y-151315000D01*
X322915000Y-156015000D02*
X322915000Y-151315000D01*
X322915000Y-156015000D02*
X325215000Y-156015000D01*
X325215000Y-151315000D02*
X325215000Y-156015000D01*
%TO.C,H9*%
X342714130Y-105665000D02*
G75*
G02*
X337814130Y-105665000I-2450000J0D01*
G01*
X337814130Y-105665000D02*
G75*
G02*
X342714130Y-105665000I2450000J0D01*
G01*
%TO.C,R23*%
X239475000Y-110935000D02*
X242435000Y-110935000D01*
X242435000Y-112395000D01*
X239475000Y-112395000D01*
X239475000Y-110935000D01*
%TO.C,H6*%
X241214130Y-167565000D02*
G75*
G02*
X236314130Y-167565000I-2450000J0D01*
G01*
X236314130Y-167565000D02*
G75*
G02*
X241214130Y-167565000I2450000J0D01*
G01*
%TO.C,C47*%
X233694954Y-128924117D02*
X236099117Y-126519954D01*
X237485046Y-127905883D01*
X235080883Y-130310046D01*
X233694954Y-128924117D01*
%TO.C,R21*%
X222265051Y-126390269D02*
X223580269Y-125075051D01*
X224244949Y-125739731D01*
X222929731Y-127054949D01*
X222265051Y-126390269D01*
%TO.C,J11*%
D11*
X220394129Y-103640002D02*
X220394130Y-97140000D01*
X220394129Y-103640002D02*
X229434130Y-103639998D01*
X220394130Y-97140000D02*
X229434132Y-97140000D01*
X229434130Y-103639998D02*
X229434132Y-97140000D01*
%TO.C,D16*%
D10*
X106864214Y-148764214D02*
X109164214Y-148764214D01*
X106864214Y-153464214D02*
X106864214Y-148764214D01*
X106864214Y-153464214D02*
X109164214Y-153464214D01*
X109164214Y-148764214D02*
X109164214Y-153464214D01*
%TO.C,H7*%
X266714130Y-105715000D02*
G75*
G02*
X261814130Y-105715000I-2450000J0D01*
G01*
X261814130Y-105715000D02*
G75*
G02*
X266714130Y-105715000I2450000J0D01*
G01*
%TO.C,C35*%
X230346802Y-138396264D02*
X231633736Y-139683198D01*
X230983198Y-140333736D01*
X229696264Y-139046802D01*
X230346802Y-138396264D01*
%TO.C,J2*%
X172862968Y-160214949D02*
X174439178Y-154332463D01*
X182765460Y-156563480D01*
X181189249Y-162445969D01*
X172862968Y-160214949D01*
%TO.C,D7*%
X163864214Y-132314214D02*
X166164214Y-132314214D01*
X163864214Y-137014214D02*
X163864214Y-132314214D01*
X163864214Y-137014214D02*
X166164214Y-137014214D01*
X166164214Y-132314214D02*
X166164214Y-137014214D01*
%TO.C,C15*%
X193996508Y-129319544D02*
X196089544Y-127226508D01*
X197121920Y-128258884D01*
X195028884Y-130351920D01*
X193996508Y-129319544D01*
%TO.C,D3*%
X125864214Y-110264214D02*
X128164214Y-110264214D01*
X125864214Y-114964214D02*
X125864214Y-110264214D01*
X125864214Y-114964214D02*
X128164214Y-114964214D01*
X128164214Y-110264214D02*
X128164214Y-114964214D01*
%TO.C,H10*%
X342714130Y-141665000D02*
G75*
G02*
X337814130Y-141665000I-2450000J0D01*
G01*
X337814130Y-141665000D02*
G75*
G02*
X342714130Y-141665000I2450000J0D01*
G01*
%TO.C,R2*%
X202484214Y-105344214D02*
X204344214Y-105344214D01*
X204344214Y-106284214D01*
X202484214Y-106284214D01*
X202484214Y-105344214D01*
%TO.C,C37*%
X239771802Y-130421264D02*
X241058736Y-131708198D01*
X240408198Y-132358736D01*
X239121264Y-131071802D01*
X239771802Y-130421264D01*
%TO.C,J8*%
X228164130Y-117565000D02*
X228164130Y-120265000D01*
X228164130Y-120265000D02*
X232664130Y-120265000D01*
X232664130Y-117565000D02*
X228164130Y-117565000D01*
X232664130Y-120265000D02*
X232664130Y-117565000D01*
%TO.C,R29*%
X236875051Y-109590269D02*
X238190269Y-108275051D01*
X238854949Y-108939731D01*
X237539731Y-110254949D01*
X236875051Y-109590269D01*
%TO.C,R30*%
X231794949Y-108889731D02*
X230479731Y-110204949D01*
X229815051Y-109540269D01*
X231130269Y-108225051D01*
X231794949Y-108889731D01*
%TO.C,R10*%
X205954163Y-124538945D02*
X204638945Y-125854163D01*
X203974265Y-125189483D01*
X205289483Y-123874265D01*
X205954163Y-124538945D01*
%TO.C,SW47*%
X214414130Y-110915000D02*
X214414130Y-115915000D01*
X214414130Y-115915000D02*
X216164130Y-115915000D01*
X215914130Y-110165000D02*
X215914130Y-110915000D01*
X215914130Y-110915000D02*
X214414130Y-110915000D01*
X216164130Y-115915000D02*
X216164130Y-116665000D01*
X216164130Y-116665000D02*
X216414130Y-116665000D01*
X216414130Y-108415000D02*
X216414130Y-110165000D01*
X216414130Y-110165000D02*
X215914130Y-110165000D01*
X216414130Y-116665000D02*
X216414130Y-118415000D01*
X216414130Y-118415000D02*
X220914130Y-118415000D01*
X220914130Y-108415000D02*
X216414130Y-108415000D01*
X220914130Y-109915000D02*
X220914130Y-108415000D01*
X220914130Y-116915000D02*
X223164130Y-116915000D01*
X220914130Y-118415000D02*
X220914130Y-116915000D01*
X223164130Y-109915000D02*
X220914130Y-109915000D01*
X223164130Y-116915000D02*
X223164130Y-109915000D01*
%TO.C,TP1*%
X138014214Y-163514214D02*
X138014214Y-166514214D01*
X138014214Y-163514214D02*
X141014214Y-163514214D01*
X141014214Y-166514214D02*
X138014214Y-166514214D01*
X141014214Y-166514214D02*
X141014214Y-163514214D01*
%TO.C,D5*%
X87864214Y-113364214D02*
X90164214Y-113364214D01*
X87864214Y-118064214D02*
X87864214Y-113364214D01*
X87864214Y-118064214D02*
X90164214Y-118064214D01*
X90164214Y-113364214D02*
X90164214Y-118064214D01*
%TO.C,D46*%
X303915000Y-110315000D02*
X306215000Y-110315000D01*
X303915000Y-115015000D02*
X303915000Y-110315000D01*
X303915000Y-115015000D02*
X306215000Y-115015000D01*
X306215000Y-110315000D02*
X306215000Y-115015000D01*
%TO.C,D53*%
X322715000Y-132365000D02*
X325015000Y-132365000D01*
X322715000Y-137065000D02*
X322715000Y-132365000D01*
X322715000Y-137065000D02*
X325015000Y-137065000D01*
X325015000Y-132365000D02*
X325015000Y-137065000D01*
%TO.C,C24*%
X201394544Y-126626920D02*
X199301508Y-124533884D01*
X200333884Y-123501508D01*
X202426920Y-125594544D01*
X201394544Y-126626920D01*
%TO.C,Y1*%
X201661701Y-136936575D02*
X204136575Y-134461701D01*
X201166727Y-131491853D01*
X198691853Y-133966727D01*
X201661701Y-136936575D01*
%TO.C,C50*%
X229523198Y-132283736D02*
X228236264Y-130996802D01*
X228886802Y-130346264D01*
X230173736Y-131633198D01*
X229523198Y-132283736D01*
%TO.C,R6*%
X183269214Y-111829214D02*
X183269214Y-113689214D01*
X182329214Y-113689214D01*
X182329214Y-111829214D01*
X183269214Y-111829214D01*
%TO.C,SW1*%
X136664214Y-158814214D02*
X142164214Y-158814214D01*
X136664214Y-162214214D02*
X136664214Y-158814214D01*
X142164214Y-158814214D02*
X142164214Y-162214214D01*
X142164214Y-162214214D02*
X136664214Y-162214214D01*
%TO.C,L1*%
X193076508Y-127699544D02*
X195169544Y-125606508D01*
X196201920Y-126638884D01*
X194108884Y-128731920D01*
X193076508Y-127699544D01*
%TO.C,Y3*%
X231892639Y-142662487D02*
X234862487Y-139692639D01*
X237337361Y-142167513D01*
X234367513Y-145137361D01*
X231892639Y-142662487D01*
%TO.C,U3*%
X199762850Y-107564214D02*
X199962850Y-107564214D01*
X199762850Y-109664214D02*
X199762850Y-107564214D01*
X199962850Y-106564214D02*
X202962850Y-106564214D01*
X199962850Y-107564214D02*
X199962850Y-106564214D01*
X199962850Y-109664214D02*
X199762850Y-109664214D01*
X199962850Y-110664214D02*
X199962850Y-109664214D01*
X202962850Y-106564214D02*
X202962850Y-107564214D01*
X202962850Y-107564214D02*
X203162850Y-107564214D01*
X202962850Y-109664214D02*
X202962850Y-110664214D01*
X202962850Y-110664214D02*
X199962850Y-110664214D01*
X203162850Y-107564214D02*
X203162850Y-109664214D01*
X203162850Y-109664214D02*
X202962850Y-109664214D01*
%TO.C,D45*%
X284915000Y-110265000D02*
X287215000Y-110265000D01*
X284915000Y-114965000D02*
X284915000Y-110265000D01*
X284915000Y-114965000D02*
X287215000Y-114965000D01*
X287215000Y-110265000D02*
X287215000Y-114965000D01*
%TO.C,U7*%
X239620732Y-134915000D02*
X233256771Y-141278961D01*
X226892810Y-134915000D01*
X233256771Y-128551039D01*
X239620732Y-134915000D01*
%TO.C,D20*%
X164815121Y-177127706D02*
X166031570Y-172587854D01*
X164815121Y-177127706D02*
X167036750Y-177722990D01*
X166031570Y-172587854D02*
X168253199Y-173183138D01*
X168253199Y-173183138D02*
X167036750Y-177722990D01*
%TD*%
M02*
