0
SECTION
2
HEADER
9
$INSUNITS
70
4
9
$ACADVER
1
AC1014
9
$HANDSEED
5
FFFF
0
ENDSEC
0
SECTION
2
TABLES
0
TABLE
2
VPORT
5
8
100
AcDbSymbolTable
0
ENDTAB
0
TABLE
2
LTYPE
5
5
100
AcDbSymbolTable
0
LTYPE
5
14
100
AcDbSymbolTableRecord
100
AcDbLinetypeTableRecord
2
BYBLOCK
70
0
0
LTYPE
5
15
100
AcDbSymbolTableRecord
100
AcDbLinetypeTableRecord
2
BYLAYER
70
0
0
LTYPE
5
16
100
AcDbSymbolTableRecord
100
AcDbLinetypeTableRecord
2
DASHED
70
0
3
Dashed __ __ __ __ __ __ __ __ __ __ __ __ __ _
72
65
73
2
40
0.75
49
0.5
74
0
49
-0.25
74
0
0
ENDTAB
0
TABLE
2
LAYER
5
2
100
AcDbSymbolTable
70
2
0
LAYER
5
50
100
AcDbSymbolTableRecord
100
AcDbLayerTableRecord
2
0
70
0
62
7
6
CONTINUOUS
0
ENDTAB
0
TABLE
2
STYLE
5
3
100
AcDbSymbolTable
70
1
0
STYLE
5
11
100
AcDbSymbolTableRecord
100
AcDbTextStyleTableRecord
2
STANDARD
70
0
0
ENDTAB
0
TABLE
2
VIEW
5
6
100
AcDbSymbolTable
70
0
0
ENDTAB
0
TABLE
2
UCS
5
7
100
AcDbSymbolTable
70
0
0
ENDTAB
0
TABLE
2
APPID
5
9
100
AcDbSymbolTable
70
2
0
APPID
5
12
100
AcDbSymbolTableRecord
100
AcDbRegAppTableRecord
2
ACAD
70
0
0
ENDTAB
0
TABLE
2
DIMSTYLE
5
A
100
AcDbSymbolTable
70
1
0
ENDTAB
0
TABLE
2
BLOCK_RECORD
5
1
100
AcDbSymbolTable
70
1
0
BLOCK_RECORD
5
1F
100
AcDbSymbolTableRecord
100
AcDbBlockTableRecord
2
*MODEL_SPACE
0
BLOCK_RECORD
5
1B
100
AcDbSymbolTableRecord
100
AcDbBlockTableRecord
2
*PAPER_SPACE
0
ENDTAB
0
ENDSEC
0
SECTION
2
BLOCKS
0
BLOCK
5
20
100
AcDbEntity
100
AcDbBlockBegin
2
*MODEL_SPACE
0
ENDBLK
5
21
100
AcDbEntity
100
AcDbBlockEnd
0
BLOCK
5
1C
100
AcDbEntity
100
AcDbBlockBegin
2
*PAPER_SPACE
0
ENDBLK
5
1D
100
AcDbEntity
100
AcDbBlockEnd
0
ENDSEC
0
SECTION
2
ENTITIES
0
LWPOLYLINE
5
100
100
AcDbEntity
8
0
100
AcDbPolyline
90
33
70
1
43
0.0
10
-560.46526539942306
20
140.70412237243374
42
0.41421356237311324
10
-558.46526539942295
20
138.70412237243366
10
-545.41973510421042
20
138.70412237243394
42
-0.19891236737965257
10
-544.00552154183731
20
138.11833593480711
10
-540.42854749090588
20
134.54136188387596
42
-0.19891236737966941
10
-539.84276105327888
20
133.1271483215028
10
-539.84276105327899
20
98.474299975906405
42
0.41421356237307422
10
-537.84276105327899
20
96.474299975906376
10
-495.46526539942431
20
96.474299975906433
10
-495.46526539942431
20
95.424299975906436
42
0.41421356237319651
10
-493.46526539942431
20
93.42429997590699
10
-472.9152653994243
20
93.424299975906479
42
0.41421356237137807
10
-472.41526539942117
20
93.92429997590645
10
-455.36526539942423
20
93.924299975906422
42
0.41263942890085065
10
-453.36526539942486
20
95.935083831256804
10
-453.36526539942435
20
96.67429997590645
10
-417.26526539942427
20
96.67429997590645
42
0.41421356237297796
10
-415.26526539942489
20
98.67429997590645
10
-415.26526539942427
20
155.82429997590646
42
0.41421356236521534
10
-417.26526539942432
20
157.82429997585587
10
-479.07593639942434
20
157.8242999759064
42
-0.27486808575191723
10
-480.83318539944315
20
158.86927297589622
10
-490.94734539942436
20
177.47932697590639
42
0.27486793333389081
10
-492.70459439942431
20
178.5242999758697
10
-513.24476739942429
20
178.52429997590647
42
-0.067318075944584221
10
-513.77604539942649
20
178.59615497589868
10
-531.63342739942425
20
183.51655397590645
42
-0.038215466157745591
10
-531.9206782187216
20
183.61986859274541
42
-0.0053186118529987012
10
-531.95931739945763
20
183.63769597583641
10
-549.59464339942429
20
191.77429997590639
42
0.41074398093346676
10
-552.25486539941585
20
190.77749697590258
10
-560.28014239942434
20
173.21270197590647
42
0.10883911801096702
10
-560.46526539942215
20
172.37233297590646
0
LWPOLYLINE
5
101
100
AcDbEntity
8
0
100
AcDbPolyline
90
4
70
1
43
0.0
10
-529.10848726439963
20
114.92057295546496
10
-515.10848726439963
20
114.92057295546493
10
-515.10848726439963
20
100.92057295546495
10
-529.10848726439963
20
100.92057295546498
0
LWPOLYLINE
5
102
100
AcDbEntity
8
0
100
AcDbPolyline
90
4
70
1
43
0.0
10
-510.04137606859325
20
152.95112312901267
10
-496.04137606859319
20
152.95112312901264
10
-496.04137606859319
20
138.95112312901264
10
-510.04137606859325
20
138.95112312901267
0
LWPOLYLINE
5
103
100
AcDbEntity
8
0
100
AcDbPolyline
90
4
70
1
43
0.0
10
-477.01231924571084
20
149.94887314357595
10
-477.01231924571084
20
135.94887314357592
10
-491.0123192457109
20
135.94887314357595
10
-491.0123192457109
20
149.94887314357598
0
LWPOLYLINE
5
104
100
AcDbEntity
8
0
100
AcDbPolyline
90
4
70
1
43
0.0
10
-457.99592251452293
20
112.42514379070266
10
-457.99592251452293
20
98.425143790702677
10
-471.99592251452304
20
98.42514379070272
10
-471.99592251452304
20
112.42514379070271
0
LWPOLYLINE
5
105
100
AcDbEntity
8
0
100
AcDbPolyline
90
4
70
1
43
0.0
10
-419.87604185858339
20
153.28508270584661
10
-419.87604185858339
20
139.28508270584658
10
-433.87604185858328
20
139.28508270584661
10
-433.87604185858328
20
153.28508270584661
0
LWPOLYLINE
5
106
100
AcDbEntity
8
0
100
AcDbPolyline
90
4
70
1
43
0.0
10
-419.88034859740532
20
134.28550833450919
10
-419.88034859740532
20
120.28550833450916
10
-433.8803485974052
20
120.28550833450919
10
-433.8803485974052
20
134.28550833450919
0
LWPOLYLINE
5
107
100
AcDbEntity
8
0
100
AcDbPolyline
90
4
70
1
43
0.0
10
-438.87604143390024
20
115.28508355521275
10
-438.87604143390024
20
101.28508355521276
10
-452.87604143390024
20
101.28508355521279
10
-452.87604143390024
20
115.28508355521279
0
LWPOLYLINE
5
108
100
AcDbEntity
8
0
100
AcDbPolyline
90
4
70
1
43
0.0
10
-491.01567468053935
20
130.94187372718221
10
-477.01567468053929
20
130.94187372718216
10
-477.01567468053929
20
116.94187372718218
10
-491.01567468053935
20
116.94187372718221
0
LWPOLYLINE
5
109
100
AcDbEntity
8
0
100
AcDbPolyline
90
4
70
1
43
0.0
10
-510.03596358342907
20
133.9397856434658
10
-496.03596358342895
20
133.93978564346577
10
-496.03596358342895
20
119.93978564346577
10
-510.03596358342907
20
119.9397856434658
0
LWPOLYLINE
5
110
100
AcDbEntity
8
0
100
AcDbPolyline
90
4
70
1
43
0.0
10
-529.10117396633564
20
133.92217217637113
10
-515.10117396633564
20
133.92217217637111
10
-515.10117396633564
20
119.92217217637112
10
-529.10117396633564
20
119.92217217637116
0
LWPOLYLINE
5
111
100
AcDbEntity
8
0
100
AcDbPolyline
90
4
70
1
43
0.0
10
-516.75282555831336
20
174.53482965335684
10
-520.3762921897486
20
161.01186808530991
10
-533.89925375779546
20
164.63533471674515
10
-530.27578712636023
20
178.15829628479213
0
LWPOLYLINE
5
112
100
AcDbEntity
8
0
100
AcDbPolyline
90
4
70
1
43
0.0
10
-496.0260588947084
20
173.98508846440035
10
-496.0260588947084
20
159.98508846440035
10
-510.0260588947084
20
159.98508846440035
10
-510.0260588947084
20
173.98508846440035
0
LWPOLYLINE
5
113
100
AcDbEntity
8
0
100
AcDbPolyline
90
4
70
1
43
0.0
10
-491.00680127060104
20
111.93862570002713
10
-477.00680127060093
20
111.93862570002709
10
-477.00680127060093
20
97.938625700027103
10
-491.00680127060104
20
97.938625700027146
0
LWPOLYLINE
5
114
100
AcDbEntity
8
0
100
AcDbPolyline
90
4
70
1
43
0.0
10
-457.99581111966017
20
131.43347708547191
10
-457.99581111966017
20
117.43347708547189
10
-471.99581111966029
20
117.43347708547192
10
-471.99581111966029
20
131.43347708547194
0
LWPOLYLINE
5
115
100
AcDbEntity
8
0
100
AcDbPolyline
90
4
70
1
43
0.0
10
-438.87604143390024
20
153.28508270584658
10
-438.87604143390024
20
139.28508270584655
10
-452.87604143390024
20
139.28508270584661
10
-452.87604143390024
20
153.28508270584661
0
LWPOLYLINE
5
116
100
AcDbEntity
8
0
100
AcDbPolyline
90
4
70
1
43
0.0
10
-433.8871456780044
20
115.27301474242438
10
-419.88714567800434
20
115.27301474242437
10
-419.88714567800434
20
101.27301474242438
10
-433.8871456780044
20
101.27301474242441
0
LWPOLYLINE
5
117
100
AcDbEntity
8
0
100
AcDbPolyline
90
4
70
1
43
0.0
10
-452.88620655175458
20
134.28803302596893
10
-438.88620655175453
20
134.28803302596887
10
-438.88620655175453
20
120.2880330259689
10
-452.88620655175458
20
120.28803302596893
0
LWPOLYLINE
5
118
100
AcDbEntity
8
0
100
AcDbPolyline
90
4
70
1
43
0.0
10
-457.99112020271525
20
150.4357486053089
10
-457.99112020271525
20
136.4357486053089
10
-471.99112020271525
20
136.43574860530893
10
-471.99112020271525
20
150.43574860530893
0
LWPOLYLINE
5
119
100
AcDbEntity
8
0
100
AcDbPolyline
90
4
70
1
43
0.0
10
-510.0260401564982
20
114.93508356303593
10
-496.0260401564982
20
114.9350835630359
10
-496.0260401564982
20
100.9350835630359
10
-510.0260401564982
20
100.93508356303595
0
LWPOLYLINE
5
120
100
AcDbEntity
8
0
100
AcDbPolyline
90
4
70
1
43
0.0
10
-529.10460800105284
20
152.9256792954229
10
-515.10460800105284
20
152.92567929542287
10
-515.10460800105284
20
138.92567929542287
10
-529.10460800105284
20
138.92567929542292
0
LWPOLYLINE
5
121
100
AcDbEntity
8
0
100
AcDbPolyline
90
4
70
1
43
0.0
10
-542.47093041643575
20
167.93008771116857
10
-555.15923943494886
20
173.84674337553835
10
-549.24258377057913
20
186.53505239405143
10
-536.55427475206602
20
180.61839672968162
0
CIRCLE
5
122
100
AcDbEntity
8
0
100
AcDbCircle
10
-537.74526539942428
20
167.54429997590645
30
0
40
1.0999999999999943
210
0
220
0
230
1
0
CIRCLE
5
123
100
AcDbEntity
8
0
100
AcDbCircle
10
-512.24105139942435
20
141.65008597590642
30
0
40
1.0999999999999943
210
0
220
0
230
1
0
CIRCLE
5
124
100
AcDbEntity
8
0
100
AcDbCircle
10
-512.24105139942435
20
105.70008597590643
30
0
40
1.0999999999999943
210
0
220
0
230
1
0
CIRCLE
5
125
100
AcDbEntity
8
0
100
AcDbCircle
10
-436.24105139942429
20
141.65008597590642
30
0
40
1.0999999999999943
210
0
220
0
230
1
0
CIRCLE
5
126
100
AcDbEntity
8
0
100
AcDbCircle
10
-436.24105139942429
20
105.65008597590645
30
0
40
1.0999999999999943
210
0
220
0
230
1
0
LWPOLYLINE
5
127
100
AcDbEntity
8
0
100
AcDbPolyline
90
8
70
1
43
0.0
10
-556.63536456442114
20
155.48002912159257
10
-553.29707485878475
20
164.33426286479749
42
-0.41421356237309503
10
-550.72009461484708
20
165.50009854033448
10
-539.26573587264659
20
161.18149017932302
42
-0.41421356237309265
10
-538.0999001971096
20
158.60450993538538
10
-541.43818990274576
20
149.75027619218042
42
-0.41421356237309775
10
-544.01517014668354
20
148.58444051664341
10
-555.46952888888416
20
152.90304887765487
42
-0.41421356237309687
0
ENDSEC
0
SECTION
2
OBJECTS
0
DICTIONARY
5
C
100
AcDbDictionary
3
ACAD_GROUP
350
D
3
ACAD_MLINESTYLE
350
17
0
DICTIONARY
5
D
100
AcDbDictionary
0
DICTIONARY
5
1A
330
C
100
AcDbDictionary
0
DICTIONARY
5
17
100
AcDbDictionary
0
ENDSEC
0
EOF
