M48
; DRILL file KiCad 10.0.4 date 2026-07-25T00:38:17
; FORMAT={-:-/ absolute / metric / decimal}
; #@! TF.CreationDate,2026-07-25T00:38:17-04:00
; #@! TF.GenerationSoftware,Kicad,Pcbnew,10.0.4
; #@! TF.FileFunction,NonPlated,1,2,NPTH
FMAT,2
METRIC
; #@! TA.AperFunction,NonPlated,NPTH,ComponentDrill
T1C0.500
; #@! TA.AperFunction,NonPlated,NPTH,ComponentDrill
T2C0.900
; #@! TA.AperFunction,NonPlated,NPTH,ComponentDrill
T3C1.500
; #@! TA.AperFunction,NonPlated,NPTH,ComponentDrill
T4C1.600
; #@! TA.AperFunction,NonPlated,NPTH,ComponentDrill
T5C1.900
; #@! TA.AperFunction,NonPlated,NPTH,ComponentDrill
T6C2.100
; #@! TA.AperFunction,NonPlated,NPTH,ComponentDrill
T7C2.200
; #@! TA.AperFunction,NonPlated,NPTH,ComponentDrill
T8C3.000
; #@! TA.AperFunction,NonPlated,NPTH,ComponentDrill
T9C5.000
; #@! TA.AperFunction,NonPlated,NPTH,ComponentDrill
T10C10.500
%
G90
G05
T1
X98.775Y-117.03
X99.567Y-117.03
X100.358Y-117.03
X101.15Y-117.03
X101.942Y-117.03
X102.733Y-117.03
X103.525Y-117.03
T2
X187.75Y-57.13
X187.75Y-57.13
X190.75Y-57.13
X190.75Y-57.13
T5
X74.35Y-67.15
X74.35Y-67.15
X74.35Y-86.2
X74.35Y-86.2
X74.35Y-105.25
X74.35Y-105.25
X85.35Y-67.15
X85.35Y-67.15
X85.35Y-86.2
X85.35Y-86.2
X85.35Y-105.25
X85.35Y-105.25
X93.4Y-67.15
X93.4Y-67.15
X93.4Y-86.2
X93.4Y-86.2
X93.4Y-105.25
X93.4Y-105.25
X104.4Y-67.15
X104.4Y-67.15
X104.4Y-86.2
X104.4Y-86.2
X104.4Y-105.25
X104.4Y-105.25
X112.45Y-64.4
X112.45Y-64.4
X112.45Y-83.45
X112.45Y-83.45
X112.45Y-102.5
X112.45Y-102.5
X123.45Y-64.4
X123.45Y-64.4
X123.45Y-83.45
X123.45Y-83.45
X123.45Y-102.5
X123.45Y-102.5
X131.5Y-63.9
X131.5Y-63.9
X131.5Y-82.93
X131.5Y-82.93
X131.5Y-102.0
X131.5Y-102.0
X142.5Y-63.9
X142.5Y-63.9
X142.5Y-82.93
X142.5Y-82.93
X142.5Y-102.0
X142.5Y-102.0
X150.55Y-66.95
X150.55Y-66.95
X150.55Y-86.0
X150.55Y-86.0
X150.55Y-105.05
X150.55Y-105.05
X150.6Y-125.95
X150.6Y-125.95
X161.55Y-66.95
X161.55Y-66.95
X161.55Y-86.0
X161.55Y-86.0
X161.55Y-105.05
X161.55Y-105.05
X161.6Y-125.95
X161.6Y-125.95
X169.6Y-66.95
X169.6Y-66.95
X169.6Y-86.0
X169.6Y-86.0
X169.6Y-105.05
X169.6Y-105.05
X173.049Y-127.09
X173.049Y-127.09
X180.6Y-66.95
X180.6Y-66.95
X180.6Y-86.0
X180.6Y-86.0
X180.6Y-105.05
X180.6Y-105.05
X183.674Y-129.937
X183.674Y-129.937
X193.892Y-133.939
X193.892Y-133.939
X203.861Y-138.588
X203.861Y-138.588
T6
X200.585Y-115.942
T7
X93.9Y-123.03
X108.4Y-123.03
X187.75Y-90.68
X187.75Y-105.18
T8
X74.85Y-70.85
X74.85Y-89.9
X74.85Y-108.95
X79.85Y-73.05
X79.85Y-73.05
X79.85Y-92.1
X79.85Y-92.1
X79.85Y-111.15
X79.85Y-111.15
X84.85Y-70.85
X84.85Y-89.9
X84.85Y-108.95
X93.9Y-70.85
X93.9Y-89.9
X93.9Y-108.95
X98.9Y-73.05
X98.9Y-73.05
X98.9Y-92.1
X98.9Y-92.1
X98.9Y-111.15
X98.9Y-111.15
X103.9Y-70.85
X103.9Y-89.9
X103.9Y-108.95
X112.95Y-68.1
X112.95Y-87.15
X112.95Y-106.2
X117.95Y-70.3
X117.95Y-70.3
X117.95Y-89.35
X117.95Y-89.35
X117.95Y-108.4
X117.95Y-108.4
X122.95Y-68.1
X122.95Y-87.15
X122.95Y-106.2
X132.0Y-67.6
X132.0Y-86.63
X132.0Y-105.7
X137.0Y-69.8
X137.0Y-69.8
X137.0Y-88.83
X137.0Y-88.83
X137.0Y-107.9
X137.0Y-107.9
X142.0Y-67.6
X142.0Y-86.63
X142.0Y-105.7
X151.05Y-70.65
X151.05Y-89.7
X151.05Y-108.75
X151.1Y-129.65
X156.05Y-72.85
X156.05Y-72.85
X156.05Y-91.9
X156.05Y-91.9
X156.05Y-110.95
X156.05Y-110.95
X156.1Y-131.85
X156.1Y-131.85
X161.05Y-70.65
X161.05Y-89.7
X161.05Y-108.75
X161.1Y-129.65
X170.1Y-70.65
X170.1Y-89.7
X170.1Y-108.75
X172.574Y-130.793
X175.1Y-72.85
X175.1Y-72.85
X175.1Y-91.9
X175.1Y-91.9
X175.1Y-110.95
X175.1Y-110.95
X176.834Y-134.213
X176.834Y-134.213
X180.1Y-70.65
X180.1Y-89.7
X180.1Y-108.75
X182.233Y-133.382
X192.781Y-137.504
X196.383Y-141.611
X196.383Y-141.611
X201.845Y-141.73
T9
X79.85Y-67.15
X79.85Y-67.15
X79.85Y-86.2
X79.85Y-86.2
X79.85Y-105.25
X79.85Y-105.25
X98.9Y-67.15
X98.9Y-67.15
X98.9Y-86.2
X98.9Y-86.2
X98.9Y-105.25
X98.9Y-105.25
X117.95Y-64.4
X117.95Y-64.4
X117.95Y-83.45
X117.95Y-83.45
X117.95Y-102.5
X117.95Y-102.5
X137.0Y-63.9
X137.0Y-63.9
X137.0Y-82.93
X137.0Y-82.93
X137.0Y-102.0
X137.0Y-102.0
X156.05Y-66.95
X156.05Y-66.95
X156.05Y-86.0
X156.05Y-86.0
X156.05Y-105.05
X156.05Y-105.05
X156.1Y-125.95
X156.1Y-125.95
X175.1Y-66.95
X175.1Y-66.95
X175.1Y-86.0
X175.1Y-86.0
X175.1Y-105.05
X175.1Y-105.05
X178.361Y-128.514
X178.361Y-128.514
X198.877Y-136.264
X198.877Y-136.264
T10
X187.75Y-97.93
T3
G00X74.85Y-61.75
M15
G01X74.85Y-62.25
M16
G05
G00X74.85Y-80.8
M15
G01X74.85Y-81.3
M16
G05
G00X74.85Y-99.85
M15
G01X74.85Y-100.35
M16
G05
G00X84.85Y-62.25
M15
G01X84.85Y-61.75
M16
G05
G00X84.85Y-81.3
M15
G01X84.85Y-80.8
M16
G05
G00X84.85Y-100.35
M15
G01X84.85Y-99.85
M16
G05
G00X93.9Y-61.75
M15
G01X93.9Y-62.25
M16
G05
G00X93.9Y-80.8
M15
G01X93.9Y-81.3
M16
G05
G00X93.9Y-99.85
M15
G01X93.9Y-100.35
M16
G05
G00X103.9Y-62.25
M15
G01X103.9Y-61.75
M16
G05
G00X103.9Y-81.3
M15
G01X103.9Y-80.8
M16
G05
G00X103.9Y-100.35
M15
G01X103.9Y-99.85
M16
G05
G00X112.95Y-59.0
M15
G01X112.95Y-59.5
M16
G05
G00X112.95Y-78.05
M15
G01X112.95Y-78.55
M16
G05
G00X112.95Y-97.1
M15
G01X112.95Y-97.6
M16
G05
G00X122.95Y-59.5
M15
G01X122.95Y-59.0
M16
G05
G00X122.95Y-78.55
M15
G01X122.95Y-78.05
M16
G05
G00X122.95Y-97.6
M15
G01X122.95Y-97.1
M16
G05
G00X132.0Y-58.5
M15
G01X132.0Y-59.0
M16
G05
G00X132.0Y-77.53
M15
G01X132.0Y-78.03
M16
G05
G00X132.0Y-96.6
M15
G01X132.0Y-97.1
M16
G05
G00X142.0Y-59.0
M15
G01X142.0Y-58.5
M16
G05
G00X142.0Y-78.03
M15
G01X142.0Y-77.53
M16
G05
G00X142.0Y-97.1
M15
G01X142.0Y-96.6
M16
G05
G00X151.05Y-61.55
M15
G01X151.05Y-62.05
M16
G05
G00X151.05Y-80.6
M15
G01X151.05Y-81.1
M16
G05
G00X151.05Y-99.65
M15
G01X151.05Y-100.15
M16
G05
G00X151.1Y-120.55
M15
G01X151.1Y-121.05
M16
G05
G00X161.05Y-62.05
M15
G01X161.05Y-61.55
M16
G05
G00X161.05Y-81.1
M15
G01X161.05Y-80.6
M16
G05
G00X161.05Y-100.15
M15
G01X161.05Y-99.65
M16
G05
G00X161.1Y-121.05
M15
G01X161.1Y-120.55
M16
G05
G00X170.1Y-61.55
M15
G01X170.1Y-62.05
M16
G05
G00X170.1Y-80.6
M15
G01X170.1Y-81.1
M16
G05
G00X170.1Y-99.65
M15
G01X170.1Y-100.15
M16
G05
G00X174.929Y-122.004
M15
G01X174.8Y-122.486
M16
G05
G00X180.1Y-62.05
M15
G01X180.1Y-61.55
M16
G05
G00X180.1Y-81.1
M15
G01X180.1Y-80.6
M16
G05
G00X180.1Y-100.15
M15
G01X180.1Y-99.65
M16
G05
G00X184.459Y-125.075
M15
G01X184.589Y-124.592
M16
G05
G00X196.627Y-129.256
M15
G01X196.416Y-129.71
M16
G05
G00X205.479Y-133.936
M15
G01X205.69Y-133.483
M16
G05
T4
G00X196.074Y-114.301
M15
G01X196.638Y-114.506
M16
G05
M30
