M48
; DRILL file KiCad 10.0.4 date 2026-07-25T00:38:17
; FORMAT={-:-/ absolute / metric / decimal}
; #@! TF.CreationDate,2026-07-25T00:38:17-04:00
; #@! TF.GenerationSoftware,Kicad,Pcbnew,10.0.4
; #@! TF.FileFunction,Plated,1,2,PTH
FMAT,2
METRIC
; #@! TA.AperFunction,Plated,PTH,ViaDrill
T1C0.300
; #@! TA.AperFunction,Plated,PTH,ComponentDrill
T2C0.750
; #@! TA.AperFunction,Plated,PTH,ComponentDrill
T3C0.800
; #@! TA.AperFunction,Plated,PTH,ComponentDrill
T4C1.000
; #@! TA.AperFunction,Plated,PTH,ComponentDrill
T5C1.500
; #@! TA.AperFunction,Plated,PTH,ComponentDrill
T6C2.200
%
G90
G05
T1
X76.85Y-69.35
X76.85Y-88.225
X76.875Y-107.4
X81.325Y-76.275
X81.375Y-95.075
X81.675Y-57.2
X85.05Y-64.875
X86.975Y-103.425
X87.425Y-83.8
X95.875Y-69.7
X95.875Y-107.2
X95.95Y-88.35
X100.525Y-95.075
X101.3Y-57.3
X101.325Y-76.25
X104.95Y-64.65
X105.55Y-102.775
X106.575Y-83.825
X114.925Y-85.4
X114.95Y-104.5
X115.0Y-66.55
X119.975Y-92.6
X120.115Y-54.278
X120.125Y-73.4
X124.125Y-61.975
X125.025Y-100.025
X125.65Y-80.925
X134.0Y-104.1
X134.025Y-84.75
X134.075Y-66.025
X138.675Y-92.075
X138.7Y-53.9
X138.7Y-73.1
X143.475Y-99.525
X143.7Y-61.575
X144.975Y-80.725
X153.025Y-69.075
X153.075Y-88.125
X153.075Y-107.1
X153.125Y-128.575
X157.55Y-57.025
X157.875Y-95.075
X158.225Y-117.675
X158.55Y-76.2
X161.275Y-64.525
X162.475Y-123.6
X162.55Y-102.875
X162.75Y-83.75
X172.05Y-107.05
X172.125Y-88.025
X172.2Y-69.05
X174.85Y-130.05
X176.3Y-76.2
X176.4Y-57.0
X176.775Y-95.075
X181.1Y-102.625
X181.15Y-64.45
X181.175Y-83.7
X182.425Y-119.5
X185.05Y-128.05
X185.8Y-60.6
X185.8Y-61.4
X185.8Y-62.2
X186.6Y-60.6
X186.6Y-61.4
X186.6Y-62.2
X189.25Y-58.89
X190.742Y-59.95
X192.3Y-60.6
X192.3Y-61.4
X192.3Y-62.2
X193.1Y-60.6
X193.1Y-61.4
X193.1Y-62.2
X194.0Y-64.75
X194.0Y-67.2
X194.0Y-69.75
X195.25Y-138.175
X196.275Y-93.075
X196.325Y-95.65
X198.438Y-77.438
X199.25Y-84.95
X199.35Y-89.45
X200.4Y-97.1
X200.425Y-106.432
X200.5Y-93.35
X201.0Y-88.25
X201.35Y-126.6
X202.2Y-100.25
X202.275Y-86.425
X202.7Y-77.95
X203.125Y-72.75
X203.125Y-74.1
X203.54Y-88.89
X204.75Y-100.8
X205.125Y-77.95
X205.275Y-86.75
X205.35Y-99.225
X205.5Y-93.4
X205.575Y-89.25
X205.75Y-136.775
X206.625Y-75.75
X206.725Y-74.375
X206.75Y-87.65
X208.25Y-90.75
X208.25Y-91.5
X208.85Y-98.15
T2
X188.5Y-65.255
X190.5Y-65.255
T3
X207.04Y-108.452
X208.75Y-103.753
T4
X192.682Y-115.726
X193.537Y-113.377
X194.392Y-111.028
X195.31Y-60.83
X195.31Y-63.37
X195.31Y-65.91
X195.31Y-68.45
X195.31Y-70.99
X195.31Y-73.53
X195.31Y-76.07
X195.31Y-78.61
X195.31Y-81.15
X195.31Y-83.69
X195.31Y-86.23
X195.31Y-88.77
X199.19Y-94.93
X199.817Y-104.692
X200.686Y-102.305
X201.73Y-94.93
X204.27Y-94.93
X206.307Y-120.686
X206.81Y-94.93
X208.018Y-115.987
X210.55Y-60.83
X210.55Y-63.37
X210.55Y-65.91
X210.55Y-68.45
X210.55Y-70.99
X210.55Y-73.53
X210.55Y-76.07
X210.55Y-78.61
X210.55Y-81.15
X210.55Y-83.69
X210.55Y-86.23
X210.55Y-88.77
T6
X89.301Y-64.601
X89.301Y-100.601
X165.301Y-64.651
X165.301Y-100.601
X190.805Y-126.495
T5
G00X198.059Y-120.982
M15
G01X199.28Y-121.427
M16
G05
G00X201.889Y-110.458
M15
G01X203.111Y-110.902
M16
G05
M30
