%TF.GenerationSoftware,KiCad,Pcbnew,10.0.4*%
%TF.CreationDate,2026-07-25T00:38:15-04:00*%
%TF.ProjectId,pcb,7063622e-6b69-4636-9164-5f7063625858,rev?*%
%TF.SameCoordinates,Original*%
%TF.FileFunction,AssemblyDrawing,Top*%
%FSLAX46Y46*%
G04 Gerber Fmt 4.6, Leading zero omitted, Abs format (unit mm)*
G04 Created by KiCad (PCBNEW 10.0.4) date 2026-07-25 00:38:15*
%MOMM*%
%LPD*%
G01*
G04 APERTURE LIST*
%ADD10C,0.150000*%
%ADD11C,0.110000*%
%ADD12C,0.100000*%
%ADD13C,0.120000*%
%ADD14C,0.050000*%
G04 APERTURE END LIST*
D10*
X199625401Y-103625389D02*
X200296610Y-103869689D01*
X200296610Y-103869689D02*
X200414565Y-103963296D01*
X200414565Y-103963296D02*
X200471487Y-104085364D01*
X200471487Y-104085364D02*
X200467374Y-104235892D01*
X200467374Y-104235892D02*
X200434800Y-104325387D01*
X200907114Y-103027716D02*
X200711674Y-103564683D01*
X200809394Y-103296200D02*
X199869701Y-102954179D01*
X199869701Y-102954179D02*
X199971370Y-103092534D01*
X199971370Y-103092534D02*
X200028291Y-103214602D01*
X200028291Y-103214602D02*
X200040465Y-103320383D01*
D11*
X203170455Y-105150483D02*
X203740982Y-105358138D01*
X203740982Y-105358138D02*
X203820318Y-105349008D01*
X203820318Y-105349008D02*
X203866094Y-105327662D01*
X203866094Y-105327662D02*
X203924084Y-105272756D01*
X203924084Y-105272756D02*
X203972944Y-105138515D01*
X203972944Y-105138515D02*
X203963814Y-105059179D01*
X203963814Y-105059179D02*
X203942468Y-105013403D01*
X203942468Y-105013403D02*
X203887562Y-104955413D01*
X203887562Y-104955413D02*
X203317035Y-104747758D01*
X204278319Y-104299504D02*
X204131739Y-104702229D01*
X204205029Y-104500866D02*
X203500260Y-104244351D01*
X203500260Y-104244351D02*
X203576511Y-104348117D01*
X203576511Y-104348117D02*
X203619202Y-104439668D01*
X203619202Y-104439668D02*
X203628332Y-104519004D01*
%TO.C,J1*%
D12*
X202313851Y-101546168D02*
X200576389Y-106319805D01*
X200576389Y-106319805D02*
X198189569Y-105451074D01*
X200523735Y-100894619D02*
X202313851Y-101546168D01*
X199709850Y-101274141D02*
X200523735Y-100894619D01*
X198189569Y-105451074D02*
X199709850Y-101274141D01*
%TO.C,C1*%
X204545054Y-108873953D02*
X207110203Y-101826258D01*
X211244851Y-103331148D01*
X208679699Y-110378841D01*
X204545054Y-108873953D01*
%TO.C,SW22*%
X192962815Y-119340375D02*
X196554028Y-109473603D01*
X196554028Y-109473603D02*
X197869942Y-108781962D01*
X197765610Y-114916218D02*
X203403767Y-116968339D01*
X197869942Y-108781962D02*
X208206560Y-112544182D01*
X201610748Y-113123200D02*
X199558629Y-118761357D01*
X204239128Y-123444617D02*
X192962815Y-119340375D01*
X208206560Y-112544182D02*
X204239128Y-123444617D01*
X203584689Y-115942279D02*
G75*
G02*
X197584687Y-115942279I-3000001J0D01*
G01*
X197584687Y-115942279D02*
G75*
G02*
X203584689Y-115942279I3000001J0D01*
G01*
%TO.C,D15*%
X115075000Y-93254999D02*
X117875000Y-93254999D01*
X115075000Y-95055001D02*
X115075000Y-93254999D01*
X116225000Y-93755000D02*
X116824999Y-94155000D01*
X116225000Y-94155000D02*
X115725000Y-94155000D01*
X116225000Y-94555000D02*
X116225000Y-93755000D01*
X116824999Y-94155000D02*
X116225000Y-94555000D01*
X116824999Y-94155000D02*
X116825000Y-93605000D01*
X116824999Y-94155000D02*
X116825000Y-94705000D01*
X117225000Y-94155000D02*
X116824999Y-94155000D01*
X117875000Y-93254999D02*
X117875000Y-95055001D01*
X117875000Y-95055001D02*
X115075000Y-95055001D01*
%TO.C,J2*%
D13*
X186440000Y-63795001D02*
X186440000Y-71615001D01*
X186440000Y-65395001D02*
X187360000Y-65395001D01*
X186440000Y-71615001D02*
X192560000Y-71615001D01*
X187360000Y-63795001D02*
X186440000Y-63795001D01*
X187360000Y-65395001D02*
X187360000Y-63795001D01*
X187640000Y-65395001D02*
X187360000Y-65395001D01*
X187640000Y-65395001D02*
X187640000Y-64180001D01*
X187700000Y-69355001D02*
X187700000Y-71615001D01*
X188200000Y-69355001D02*
X188200000Y-71615001D01*
X189000000Y-67255001D02*
X190000000Y-67255001D01*
X189000000Y-71615001D02*
X189000000Y-67255001D01*
X190000000Y-67255001D02*
X190000000Y-71615001D01*
X191640000Y-63795001D02*
X191640000Y-65395001D01*
X191640000Y-65395001D02*
X191360000Y-65395001D01*
X192560000Y-63795001D02*
X191640000Y-63795001D01*
X192560000Y-65395001D02*
X191640000Y-65395001D01*
X192560000Y-71615001D02*
X192560000Y-63795001D01*
X187200000Y-67755001D02*
X188200000Y-67755001D01*
X188200000Y-69355001D01*
X187200000Y-69355001D01*
X187200000Y-67755001D01*
X190800000Y-67755001D02*
X191800000Y-67755001D01*
X191800000Y-69355001D01*
X190800000Y-69355001D01*
X190800000Y-67755001D01*
D14*
X186050000Y-63405001D02*
X192950000Y-63405001D01*
X192950000Y-72005001D01*
X186050000Y-72005001D01*
X186050000Y-63405001D01*
D12*
X186550000Y-63905001D02*
X186550000Y-71505001D01*
X186550000Y-71505001D02*
X192450000Y-71505001D01*
X187250000Y-63905001D02*
X186550000Y-63905001D01*
X187250000Y-65505001D02*
X187250000Y-63905001D01*
X188000000Y-66630001D02*
X189000000Y-66630001D01*
X188500000Y-66130001D02*
X188000000Y-66630001D01*
X189000000Y-66630001D02*
X188500000Y-66130001D01*
X191750000Y-63905001D02*
X191750000Y-65505001D01*
X191750000Y-65505001D02*
X187250000Y-65505001D01*
X192450000Y-63905001D02*
X191750000Y-63905001D01*
X192450000Y-71505001D02*
X192450000Y-63905001D01*
%TO.C,D5*%
X153075000Y-57504999D02*
X155875000Y-57504999D01*
X153075000Y-59305001D02*
X153075000Y-57504999D01*
X154225000Y-58005000D02*
X154824999Y-58405000D01*
X154225000Y-58405000D02*
X153725000Y-58405000D01*
X154225000Y-58805000D02*
X154225000Y-58005000D01*
X154824999Y-58405000D02*
X154225000Y-58805000D01*
X154824999Y-58405000D02*
X154825000Y-57855000D01*
X154824999Y-58405000D02*
X154825000Y-58955000D01*
X155225000Y-58405000D02*
X154824999Y-58405000D01*
X155875000Y-57504999D02*
X155875000Y-59305001D01*
X155875000Y-59305001D02*
X153075000Y-59305001D01*
%TO.C,D6*%
X174875000Y-59305000D02*
X172075000Y-59305000D01*
X174875000Y-57505000D02*
X174875000Y-59305000D01*
X174225000Y-58405000D02*
X173825000Y-58405000D01*
X173825000Y-58405000D02*
X173825000Y-58955000D01*
X173825000Y-58405000D02*
X173825000Y-57855000D01*
X173825000Y-58405000D02*
X173225000Y-58805000D01*
X173225000Y-58805000D02*
X173225000Y-58005000D01*
X173225000Y-58405000D02*
X172725000Y-58405000D01*
X173225000Y-58005000D02*
X173825000Y-58405000D01*
X172075000Y-59305000D02*
X172075000Y-57505000D01*
X172075000Y-57505000D02*
X174875000Y-57505000D01*
%TO.C,D8*%
X96075000Y-76754999D02*
X98875000Y-76754999D01*
X96075000Y-78555001D02*
X96075000Y-76754999D01*
X97225000Y-77255000D02*
X97824999Y-77655000D01*
X97225000Y-77655000D02*
X96725000Y-77655000D01*
X97225000Y-78055000D02*
X97225000Y-77255000D01*
X97824999Y-77655000D02*
X97225000Y-78055000D01*
X97824999Y-77655000D02*
X97825000Y-77105000D01*
X97824999Y-77655000D02*
X97825000Y-78205000D01*
X98225000Y-77655000D02*
X97824999Y-77655000D01*
X98875000Y-76754999D02*
X98875000Y-78555001D01*
X98875000Y-78555001D02*
X96075000Y-78555001D01*
%TO.C,D9*%
X115075000Y-74004999D02*
X117875000Y-74004999D01*
X115075000Y-75805001D02*
X115075000Y-74004999D01*
X116225000Y-74505000D02*
X116824999Y-74905000D01*
X116225000Y-74905000D02*
X115725000Y-74905000D01*
X116225000Y-75305000D02*
X116225000Y-74505000D01*
X116824999Y-74905000D02*
X116225000Y-75305000D01*
X116824999Y-74905000D02*
X116825000Y-74355000D01*
X116824999Y-74905000D02*
X116825000Y-75455000D01*
X117225000Y-74905000D02*
X116824999Y-74905000D01*
X117875000Y-74004999D02*
X117875000Y-75805001D01*
X117875000Y-75805001D02*
X115075000Y-75805001D01*
%TO.C,SW23*%
X185900000Y-55860000D02*
X185900000Y-58460000D01*
X185900000Y-58460000D02*
X192600000Y-58460000D01*
X189350000Y-54560000D02*
X189350000Y-55860000D01*
X189400000Y-54510000D02*
X189350000Y-54560000D01*
X189600000Y-54310000D02*
X189400000Y-54510000D01*
X190450000Y-54310001D02*
X189600000Y-54310000D01*
X190649999Y-54510000D02*
X190450000Y-54310001D01*
X190650000Y-55810000D02*
X190649999Y-54510000D01*
X192600000Y-55860000D02*
X185900000Y-55860000D01*
X192600000Y-58460000D02*
X192600000Y-55860000D01*
%TO.C,D14*%
X95975000Y-95504999D02*
X98775000Y-95504999D01*
X95975000Y-97305001D02*
X95975000Y-95504999D01*
X97125000Y-96005000D02*
X97724999Y-96405000D01*
X97125000Y-96405000D02*
X96625000Y-96405000D01*
X97125000Y-96805000D02*
X97125000Y-96005000D01*
X97724999Y-96405000D02*
X97125000Y-96805000D01*
X97724999Y-96405000D02*
X97725000Y-95855000D01*
X97724999Y-96405000D02*
X97725000Y-96955000D01*
X98125000Y-96405000D02*
X97724999Y-96405000D01*
X98775000Y-95504999D02*
X98775000Y-97305001D01*
X98775000Y-97305001D02*
X95975000Y-97305001D01*
%TO.C,D13*%
X76925000Y-95504999D02*
X79725000Y-95504999D01*
X76925000Y-97305001D02*
X76925000Y-95504999D01*
X78075000Y-96005000D02*
X78674999Y-96405000D01*
X78075000Y-96405000D02*
X77575000Y-96405000D01*
X78075000Y-96805000D02*
X78075000Y-96005000D01*
X78674999Y-96405000D02*
X78075000Y-96805000D01*
X78674999Y-96405000D02*
X78675000Y-95855000D01*
X78674999Y-96405000D02*
X78675000Y-96955000D01*
X79075000Y-96405000D02*
X78674999Y-96405000D01*
X79725000Y-95504999D02*
X79725000Y-97305001D01*
X79725000Y-97305001D02*
X76925000Y-97305001D01*
%TO.C,D11*%
X153325000Y-76504999D02*
X156125000Y-76504999D01*
X153325000Y-78305001D02*
X153325000Y-76504999D01*
X154475000Y-77005000D02*
X155074999Y-77405000D01*
X154475000Y-77405000D02*
X153975000Y-77405000D01*
X154475000Y-77805000D02*
X154475000Y-77005000D01*
X155074999Y-77405000D02*
X154475000Y-77805000D01*
X155074999Y-77405000D02*
X155075000Y-76855000D01*
X155074999Y-77405000D02*
X155075000Y-77955000D01*
X155475000Y-77405000D02*
X155074999Y-77405000D01*
X156125000Y-76504999D02*
X156125000Y-78305001D01*
X156125000Y-78305001D02*
X153325000Y-78305001D01*
%TO.C,D12*%
X172325000Y-76504999D02*
X175125000Y-76504999D01*
X172325000Y-78305001D02*
X172325000Y-76504999D01*
X173475000Y-77005000D02*
X174074999Y-77405000D01*
X173475000Y-77405000D02*
X172975000Y-77405000D01*
X173475000Y-77805000D02*
X173475000Y-77005000D01*
X174074999Y-77405000D02*
X173475000Y-77805000D01*
X174074999Y-77405000D02*
X174075000Y-76855000D01*
X174074999Y-77405000D02*
X174075000Y-77955000D01*
X174475000Y-77405000D02*
X174074999Y-77405000D01*
X175125000Y-76504999D02*
X175125000Y-78305001D01*
X175125000Y-78305001D02*
X172325000Y-78305001D01*
%TO.C,D20*%
X177664766Y-119936989D02*
X178130641Y-118198320D01*
X178130641Y-118198320D02*
X180835234Y-118923011D01*
X178904991Y-119751666D02*
X179112047Y-118978925D01*
X179008518Y-119365295D02*
X178525555Y-119235884D01*
X179112047Y-118978925D02*
X179588073Y-119520586D01*
X179588073Y-119520586D02*
X178904991Y-119751666D01*
X179588073Y-119520586D02*
X179445723Y-120051846D01*
X179588073Y-119520586D02*
X179730423Y-118989328D01*
X179974445Y-119624116D02*
X179588073Y-119520586D01*
X180369359Y-120661680D02*
X177664766Y-119936989D01*
X180835234Y-118923011D02*
X180369359Y-120661680D01*
%TO.C,U2*%
X197920000Y-93660001D02*
X208080001Y-93660002D01*
X197920001Y-95565000D02*
X197920000Y-93660001D01*
X198554999Y-96200002D02*
X197920001Y-95565000D01*
X208079999Y-96200001D02*
X198554999Y-96200002D01*
X208080001Y-93660002D02*
X208079999Y-96200001D01*
%TO.C,D19*%
X153175000Y-116754999D02*
X155975000Y-116754999D01*
X153175000Y-118555001D02*
X153175000Y-116754999D01*
X154325000Y-117255000D02*
X154924999Y-117655000D01*
X154325000Y-117655000D02*
X153825000Y-117655000D01*
X154325000Y-118055000D02*
X154325000Y-117255000D01*
X154924999Y-117655000D02*
X154325000Y-118055000D01*
X154924999Y-117655000D02*
X154925000Y-117105000D01*
X154924999Y-117655000D02*
X154925000Y-118205000D01*
X155325000Y-117655000D02*
X154924999Y-117655000D01*
X155975000Y-116754999D02*
X155975000Y-118555001D01*
X155975000Y-118555001D02*
X153175000Y-118555001D01*
%TO.C,D7*%
X76825000Y-76754999D02*
X79625000Y-76754999D01*
X76825000Y-78555001D02*
X76825000Y-76754999D01*
X77975000Y-77255000D02*
X78574999Y-77655000D01*
X77975000Y-77655000D02*
X77475000Y-77655000D01*
X77975000Y-78055000D02*
X77975000Y-77255000D01*
X78574999Y-77655000D02*
X77975000Y-78055000D01*
X78574999Y-77655000D02*
X78575000Y-77105000D01*
X78574999Y-77655000D02*
X78575000Y-78205000D01*
X78975000Y-77655000D02*
X78574999Y-77655000D01*
X79625000Y-76754999D02*
X79625000Y-78555001D01*
X79625000Y-78555001D02*
X76825000Y-78555001D01*
%TO.C,D18*%
X172325000Y-95754999D02*
X175125000Y-95754999D01*
X172325000Y-97555001D02*
X172325000Y-95754999D01*
X173475000Y-96255000D02*
X174074999Y-96655000D01*
X173475000Y-96655000D02*
X172975000Y-96655000D01*
X173475000Y-97055000D02*
X173475000Y-96255000D01*
X174074999Y-96655000D02*
X173475000Y-97055000D01*
X174074999Y-96655000D02*
X174075000Y-96105000D01*
X174074999Y-96655000D02*
X174075000Y-97205000D01*
X174475000Y-96655000D02*
X174074999Y-96655000D01*
X175125000Y-95754999D02*
X175125000Y-97555001D01*
X175125000Y-97555001D02*
X172325000Y-97555001D01*
%TO.C,D10*%
X134075000Y-73504999D02*
X136875000Y-73504999D01*
X134075000Y-75305001D02*
X134075000Y-73504999D01*
X135225000Y-74005000D02*
X135824999Y-74405000D01*
X135225000Y-74405000D02*
X134725000Y-74405000D01*
X135225000Y-74805000D02*
X135225000Y-74005000D01*
X135824999Y-74405000D02*
X135225000Y-74805000D01*
X135824999Y-74405000D02*
X135825000Y-73855000D01*
X135824999Y-74405000D02*
X135825000Y-74955000D01*
X136225000Y-74405000D02*
X135824999Y-74405000D01*
X136875000Y-73504999D02*
X136875000Y-75305001D01*
X136875000Y-75305001D02*
X134075000Y-75305001D01*
%TO.C,D1*%
X77075000Y-57754999D02*
X79875000Y-57754999D01*
X77075000Y-59555001D02*
X77075000Y-57754999D01*
X78225000Y-58255000D02*
X78824999Y-58655000D01*
X78225000Y-58655000D02*
X77725000Y-58655000D01*
X78225000Y-59055000D02*
X78225000Y-58255000D01*
X78824999Y-58655000D02*
X78225000Y-59055000D01*
X78824999Y-58655000D02*
X78825000Y-58105000D01*
X78824999Y-58655000D02*
X78825000Y-59205000D01*
X79225000Y-58655000D02*
X78824999Y-58655000D01*
X79875000Y-57754999D02*
X79875000Y-59555001D01*
X79875000Y-59555001D02*
X77075000Y-59555001D01*
%TO.C,U1*%
X205416054Y-104561581D02*
X204646509Y-106675888D01*
X201827431Y-105649828D01*
X202853491Y-102830750D01*
X204967800Y-103600296D01*
X205416054Y-104561581D01*
%TO.C,D2*%
X95825000Y-57754999D02*
X98625000Y-57754999D01*
X95825000Y-59555001D02*
X95825000Y-57754999D01*
X96975000Y-58255000D02*
X97574999Y-58655000D01*
X96975000Y-58655000D02*
X96475000Y-58655000D01*
X96975000Y-59055000D02*
X96975000Y-58255000D01*
X97574999Y-58655000D02*
X96975000Y-59055000D01*
X97574999Y-58655000D02*
X97575000Y-58105000D01*
X97574999Y-58655000D02*
X97575000Y-59205000D01*
X97975000Y-58655000D02*
X97574999Y-58655000D01*
X98625000Y-57754999D02*
X98625000Y-59555001D01*
X98625000Y-59555001D02*
X95825000Y-59555001D01*
%TO.C,D17*%
X153075000Y-95504999D02*
X155875000Y-95504999D01*
X153075000Y-97305001D02*
X153075000Y-95504999D01*
X154225000Y-96005000D02*
X154824999Y-96405000D01*
X154225000Y-96405000D02*
X153725000Y-96405000D01*
X154225000Y-96805000D02*
X154225000Y-96005000D01*
X154824999Y-96405000D02*
X154225000Y-96805000D01*
X154824999Y-96405000D02*
X154825000Y-95855000D01*
X154824999Y-96405000D02*
X154825000Y-96955000D01*
X155225000Y-96405000D02*
X154824999Y-96405000D01*
X155875000Y-95504999D02*
X155875000Y-97305001D01*
X155875000Y-97305001D02*
X153075000Y-97305001D01*
%TO.C,D16*%
X134075000Y-92504999D02*
X136875000Y-92504999D01*
X134075000Y-94305001D02*
X134075000Y-92504999D01*
X135225000Y-93005000D02*
X135824999Y-93405000D01*
X135225000Y-93405000D02*
X134725000Y-93405000D01*
X135225000Y-93805000D02*
X135225000Y-93005000D01*
X135824999Y-93405000D02*
X135225000Y-93805000D01*
X135824999Y-93405000D02*
X135825000Y-92855000D01*
X135824999Y-93405000D02*
X135825000Y-93955000D01*
X136225000Y-93405000D02*
X135824999Y-93405000D01*
X136875000Y-92504999D02*
X136875000Y-94305001D01*
X136875000Y-94305001D02*
X134075000Y-94305001D01*
%TO.C,D21*%
X199100818Y-127904016D02*
X199861525Y-126272658D01*
X199861525Y-126272658D02*
X202399182Y-127455984D01*
X200354372Y-127936874D02*
X200692471Y-127211828D01*
X200523421Y-127574345D02*
X200070277Y-127363036D01*
X200692471Y-127211828D02*
X201067207Y-127827915D01*
X201067207Y-127827915D02*
X200354372Y-127936874D01*
X201067207Y-127827915D02*
X200834758Y-128326380D01*
X201067207Y-127827915D02*
X201299640Y-127329445D01*
X201429723Y-127996964D02*
X201067207Y-127827915D01*
X201638475Y-129087342D02*
X199100818Y-127904016D01*
X202399182Y-127455984D02*
X201638475Y-129087342D01*
%TO.C,D4*%
X134325000Y-54504999D02*
X137125000Y-54504999D01*
X134325000Y-56305001D02*
X134325000Y-54504999D01*
X135475000Y-55005000D02*
X136074999Y-55405000D01*
X135475000Y-55405000D02*
X134975000Y-55405000D01*
X135475000Y-55805000D02*
X135475000Y-55005000D01*
X136074999Y-55405000D02*
X135475000Y-55805000D01*
X136074999Y-55405000D02*
X136075000Y-54855000D01*
X136074999Y-55405000D02*
X136075000Y-55955000D01*
X136475000Y-55405000D02*
X136074999Y-55405000D01*
X137125000Y-54504999D02*
X137125000Y-56305001D01*
X137125000Y-56305001D02*
X134325000Y-56305001D01*
%TO.C,D3*%
X115075000Y-55004999D02*
X117875000Y-55004999D01*
X115075000Y-56805001D02*
X115075000Y-55004999D01*
X116225000Y-55505000D02*
X116824999Y-55905000D01*
X116225000Y-55905000D02*
X115725000Y-55905000D01*
X116225000Y-56305000D02*
X116225000Y-55505000D01*
X116824999Y-55905000D02*
X116225000Y-56305000D01*
X116824999Y-55905000D02*
X116825000Y-55355000D01*
X116824999Y-55905000D02*
X116825000Y-56455000D01*
X117225000Y-55905000D02*
X116824999Y-55905000D01*
X117875000Y-55004999D02*
X117875000Y-56805001D01*
X117875000Y-56805001D02*
X115075000Y-56805001D01*
%TD*%
M02*
