%TF.GenerationSoftware,KiCad,Pcbnew,10.0.4*%
%TF.CreationDate,2026-07-25T00:38:15-04:00*%
%TF.ProjectId,pcb,7063622e-6b69-4636-9164-5f7063625858,rev?*%
%TF.SameCoordinates,Original*%
%TF.FileFunction,Profile,NP*%
%FSLAX46Y46*%
G04 Gerber Fmt 4.6, Leading zero omitted, Abs format (unit mm)*
G04 Created by KiCad (PCBNEW 10.0.4) date 2026-07-25 00:38:15*
%MOMM*%
%LPD*%
G01*
G04 APERTURE LIST*
%TA.AperFunction,Profile*%
%ADD10C,0.050000*%
%TD*%
G04 APERTURE END LIST*
D10*
X68150000Y-57666471D02*
X68150000Y-114816471D01*
X68150000Y-57666471D02*
G75*
G02*
X70150000Y-55666500I2000000J-29D01*
G01*
X70150000Y-55666471D02*
X83650000Y-55666471D01*
X70150000Y-116816471D02*
G75*
G02*
X68150029Y-114816471I0J1999971D01*
G01*
X83650000Y-55666471D02*
X88650000Y-55666471D01*
X88650000Y-55666471D02*
X106250000Y-55666471D01*
X91950001Y-122280002D02*
X91950001Y-123780001D01*
X91950001Y-122280002D02*
G75*
G02*
X96950002Y-117280001I4999999J2D01*
G01*
X96950001Y-128780000D02*
G75*
G02*
X91950000Y-123780001I-1J5000000D01*
G01*
X98665786Y-116816471D02*
X70150000Y-116816471D01*
X98665786Y-116816471D02*
X98665786Y-117280000D01*
X98665786Y-117280000D02*
X96950002Y-117280000D01*
X103650000Y-116816471D02*
X103650000Y-117280001D01*
X103650000Y-116816471D02*
X131960671Y-116816471D01*
X105350000Y-117280001D02*
X103650000Y-117280001D01*
X105350000Y-117280001D02*
G75*
G02*
X110349999Y-122280000I0J-4999999D01*
G01*
X105350000Y-128780000D02*
X96950001Y-128780000D01*
X106250000Y-54916471D02*
X106250000Y-55666471D01*
X106250000Y-54916471D02*
G75*
G02*
X108250000Y-52916500I2000000J-29D01*
G01*
X110350000Y-122280000D02*
X110350000Y-123780000D01*
X110350000Y-123780000D02*
G75*
G02*
X105350000Y-128780000I-5000000J0D01*
G01*
X125300000Y-52916471D02*
X108250000Y-52916471D01*
X125300000Y-52916471D02*
G75*
G02*
X125800000Y-52416500I500000J-29D01*
G01*
X125800000Y-52416471D02*
X146350000Y-52416471D01*
X131960671Y-116816471D02*
G75*
G02*
X133717956Y-117861425I29J-2000029D01*
G01*
X143832080Y-136471498D02*
X133717920Y-117861444D01*
X145589329Y-137516471D02*
G75*
G02*
X143832117Y-136471478I-29J1999871D01*
G01*
X146350000Y-52416471D02*
G75*
G02*
X148350029Y-54416471I0J-2000029D01*
G01*
X148350000Y-54416471D02*
X148350000Y-55466471D01*
X148350000Y-55466471D02*
X163650000Y-55466471D01*
X153650000Y-137516471D02*
X145589329Y-137516471D01*
X153650000Y-137516471D02*
X158650000Y-137516471D01*
X158650000Y-137516471D02*
X166129502Y-137516471D01*
X163650000Y-55466471D02*
X168650000Y-55466471D01*
X166129502Y-137516471D02*
G75*
G02*
X166660779Y-137588329I-2J-1999929D01*
G01*
X168650000Y-55466471D02*
X188650000Y-55466471D01*
X184518162Y-142508725D02*
X166660780Y-137588326D01*
X184518162Y-142508725D02*
G75*
G02*
X184844052Y-142629866I-531362J-1928375D01*
G01*
X188650000Y-55466471D02*
X193650000Y-55466471D01*
X193650000Y-55466471D02*
X211350000Y-55466471D01*
X202479378Y-150766471D02*
X184844052Y-142629871D01*
X205139600Y-149769668D02*
G75*
G02*
X202475027Y-150766410I-1836700J850068D01*
G01*
X211350000Y-55466471D02*
G75*
G02*
X213350029Y-57466471I0J-2000029D01*
G01*
X213164877Y-132204873D02*
X205141441Y-149769668D01*
X213350000Y-57466471D02*
X213350000Y-131364504D01*
X213350000Y-131364504D02*
G75*
G02*
X213164863Y-132204866I-2000300J104D01*
G01*
M02*
