M48
; DRILL file KiCad 10.0.4 date 2026-07-18T13:23:45
; FORMAT={-:-/ absolute / metric / decimal}
; #@! TF.CreationDate,2026-07-18T13:23:45-04:00
; #@! TF.GenerationSoftware,Kicad,Pcbnew,10.0.4
; #@! TF.FileFunction,NonPlated,1,2,NPTH
FMAT,2
METRIC
; #@! TA.AperFunction,NonPlated,NPTH,ComponentDrill
T1C0.900
; #@! TA.AperFunction,NonPlated,NPTH,ComponentDrill
T2C1.500
; #@! TA.AperFunction,NonPlated,NPTH,ComponentDrill
T3C1.600
; #@! TA.AperFunction,NonPlated,NPTH,ComponentDrill
T4C1.900
; #@! TA.AperFunction,NonPlated,NPTH,ComponentDrill
T5C2.100
; #@! TA.AperFunction,NonPlated,NPTH,ComponentDrill
T6C2.200
; #@! TA.AperFunction,NonPlated,NPTH,ComponentDrill
T7C3.000
; #@! TA.AperFunction,NonPlated,NPTH,ComponentDrill
T8C5.000
; #@! TA.AperFunction,NonPlated,NPTH,ComponentDrill
T9C12.800
%
G90
G05
T1
X207.814Y-110.014
X207.814Y-116.814
X218.664Y-110.015
X218.664Y-116.815
T4
X71.264Y-108.214
X71.264Y-127.264
X71.264Y-146.314
X82.264Y-108.214
X82.264Y-127.264
X82.264Y-146.314
X90.314Y-108.214
X90.314Y-127.264
X90.314Y-146.314
X101.314Y-108.214
X101.314Y-127.264
X101.314Y-146.314
X109.364Y-105.464
X109.364Y-124.514
X109.364Y-143.564
X120.364Y-105.464
X120.364Y-124.514
X120.364Y-143.564
X128.414Y-104.964
X128.414Y-123.994
X128.414Y-143.064
X139.414Y-104.964
X139.414Y-123.994
X139.414Y-143.064
X147.464Y-108.014
X147.464Y-127.064
X147.464Y-146.114
X147.514Y-167.014
X158.464Y-108.014
X158.464Y-127.064
X158.464Y-146.114
X158.514Y-167.014
X166.514Y-108.014
X166.514Y-127.064
X166.514Y-146.114
X169.963Y-168.154
X177.514Y-108.014
X177.514Y-127.064
X177.514Y-146.114
X180.588Y-171.001
X190.806Y-175.003
X200.776Y-179.652
X225.679Y-179.639
X235.649Y-174.991
X245.902Y-171.012
X248.954Y-108.025
X248.964Y-127.065
X248.964Y-146.115
X256.527Y-168.165
X259.954Y-108.025
X259.964Y-127.065
X259.964Y-146.115
X267.964Y-167.015
X268.004Y-108.025
X268.014Y-127.065
X268.014Y-146.115
X278.964Y-167.015
X279.004Y-108.025
X279.014Y-127.065
X279.014Y-146.115
X287.064Y-104.965
X287.064Y-124.015
X287.064Y-143.065
X298.064Y-104.965
X298.064Y-124.015
X298.064Y-143.065
X306.114Y-105.465
X306.114Y-124.515
X306.114Y-143.565
X317.114Y-105.465
X317.114Y-124.515
X317.114Y-143.565
X325.164Y-108.215
X325.164Y-127.265
X325.164Y-146.315
X336.164Y-108.215
X336.164Y-127.265
X336.164Y-146.315
X344.214Y-108.215
X344.214Y-127.265
X344.214Y-146.315
X355.214Y-108.215
X355.214Y-127.265
X355.214Y-146.315
T5
X194.439Y-155.089
X232.04Y-155.089
T6
X86.215Y-105.665
X86.215Y-141.665
X162.215Y-105.715
X162.215Y-141.665
X187.719Y-167.559
X238.764Y-167.565
X264.264Y-105.715
X264.264Y-141.665
X340.264Y-105.665
X340.264Y-141.665
T7
X76.764Y-114.114
X76.764Y-133.164
X76.764Y-152.214
X81.764Y-111.914
X81.764Y-130.964
X81.764Y-150.014
X95.814Y-114.114
X95.814Y-133.164
X95.814Y-152.214
X100.814Y-111.914
X100.814Y-130.964
X100.814Y-150.014
X114.864Y-111.364
X114.864Y-130.414
X114.864Y-149.464
X119.864Y-109.164
X119.864Y-128.214
X119.864Y-147.264
X133.914Y-110.864
X133.914Y-129.894
X133.914Y-148.964
X138.914Y-108.664
X138.914Y-127.694
X138.914Y-146.764
X152.964Y-113.914
X152.964Y-132.964
X152.964Y-152.014
X153.014Y-172.914
X157.964Y-111.714
X157.964Y-130.764
X157.964Y-149.814
X158.014Y-170.714
X172.014Y-113.914
X172.014Y-132.964
X172.014Y-152.014
X173.749Y-175.277
X177.014Y-111.714
X177.014Y-130.764
X177.014Y-149.814
X179.148Y-174.446
X193.297Y-182.675
X198.759Y-182.794
X233.158Y-182.662
X236.759Y-178.555
X252.741Y-175.287
X254.454Y-113.925
X254.464Y-132.965
X254.464Y-152.015
X257.001Y-171.868
X259.454Y-111.725
X259.464Y-130.765
X259.464Y-149.815
X273.464Y-172.915
X273.504Y-113.925
X273.514Y-132.965
X273.514Y-152.015
X278.464Y-170.715
X278.504Y-111.725
X278.514Y-130.765
X278.514Y-149.815
X292.564Y-110.865
X292.564Y-129.915
X292.564Y-148.965
X297.564Y-108.665
X297.564Y-127.715
X297.564Y-146.765
X311.614Y-111.365
X311.614Y-130.415
X311.614Y-149.465
X316.614Y-109.165
X316.614Y-128.215
X316.614Y-147.265
X330.664Y-114.115
X330.664Y-133.165
X330.664Y-152.215
X335.664Y-111.915
X335.664Y-130.965
X335.664Y-150.015
X349.714Y-114.115
X349.714Y-133.165
X349.714Y-152.215
X354.714Y-111.915
X354.714Y-130.965
X354.714Y-150.015
T8
X76.764Y-108.214
X76.764Y-127.264
X76.764Y-146.314
X95.814Y-108.214
X95.814Y-127.264
X95.814Y-146.314
X114.864Y-105.464
X114.864Y-124.514
X114.864Y-143.564
X133.914Y-104.964
X133.914Y-123.994
X133.914Y-143.064
X152.964Y-108.014
X152.964Y-127.064
X152.964Y-146.114
X153.014Y-167.014
X172.014Y-108.014
X172.014Y-127.064
X172.014Y-146.114
X175.276Y-169.578
X195.791Y-177.328
X230.664Y-177.315
X251.214Y-169.589
X254.454Y-108.025
X254.464Y-127.065
X254.464Y-146.115
X273.464Y-167.015
X273.504Y-108.025
X273.514Y-127.065
X273.514Y-146.115
X292.564Y-104.965
X292.564Y-124.015
X292.564Y-143.065
X311.614Y-105.465
X311.614Y-124.515
X311.614Y-143.565
X330.664Y-108.215
X330.664Y-127.265
X330.664Y-146.315
X349.714Y-108.215
X349.714Y-127.265
X349.714Y-146.315
T9
X186.355Y-120.165
X240.105Y-120.165
T2
G00X71.764Y-102.814
M15
G01X71.764Y-103.314
M16
G05
G00X71.764Y-121.864
M15
G01X71.764Y-122.364
M16
G05
G00X71.764Y-140.914
M15
G01X71.764Y-141.414
M16
G05
G00X90.814Y-102.814
M15
G01X90.814Y-103.314
M16
G05
G00X90.814Y-121.864
M15
G01X90.814Y-122.364
M16
G05
G00X90.814Y-140.914
M15
G01X90.814Y-141.414
M16
G05
G00X109.864Y-100.064
M15
G01X109.864Y-100.564
M16
G05
G00X109.864Y-119.114
M15
G01X109.864Y-119.614
M16
G05
G00X109.864Y-138.164
M15
G01X109.864Y-138.664
M16
G05
G00X128.914Y-99.564
M15
G01X128.914Y-100.064
M16
G05
G00X128.914Y-118.594
M15
G01X128.914Y-119.094
M16
G05
G00X128.914Y-137.664
M15
G01X128.914Y-138.164
M16
G05
G00X147.964Y-102.614
M15
G01X147.964Y-103.114
M16
G05
G00X147.964Y-121.664
M15
G01X147.964Y-122.164
M16
G05
G00X147.964Y-140.714
M15
G01X147.964Y-141.214
M16
G05
G00X148.014Y-161.614
M15
G01X148.014Y-162.114
M16
G05
G00X167.014Y-102.614
M15
G01X167.014Y-103.114
M16
G05
G00X167.014Y-121.664
M15
G01X167.014Y-122.164
M16
G05
G00X167.014Y-140.714
M15
G01X167.014Y-141.214
M16
G05
G00X171.844Y-163.068
M15
G01X171.714Y-163.551
M16
G05
G00X193.542Y-170.321
M15
G01X193.33Y-170.774
M16
G05
G00X223.85Y-174.534
M15
G01X224.062Y-174.987
M16
G05
G00X244.987Y-165.667
M15
G01X245.116Y-166.15
M16
G05
G00X249.454Y-102.625
M15
G01X249.454Y-103.125
M16
G05
G00X249.464Y-121.665
M15
G01X249.464Y-122.165
M16
G05
G00X249.464Y-140.715
M15
G01X249.464Y-141.215
M16
G05
G00X268.464Y-161.615
M15
G01X268.464Y-162.115
M16
G05
G00X268.504Y-102.625
M15
G01X268.504Y-103.125
M16
G05
G00X268.514Y-121.665
M15
G01X268.514Y-122.165
M16
G05
G00X268.514Y-140.715
M15
G01X268.514Y-141.215
M16
G05
G00X287.564Y-99.565
M15
G01X287.564Y-100.065
M16
G05
G00X287.564Y-118.615
M15
G01X287.564Y-119.115
M16
G05
G00X287.564Y-137.665
M15
G01X287.564Y-138.165
M16
G05
G00X306.614Y-100.065
M15
G01X306.614Y-100.565
M16
G05
G00X306.614Y-119.115
M15
G01X306.614Y-119.615
M16
G05
G00X306.614Y-138.165
M15
G01X306.614Y-138.665
M16
G05
G00X325.664Y-102.815
M15
G01X325.664Y-103.315
M16
G05
G00X325.664Y-121.865
M15
G01X325.664Y-122.365
M16
G05
G00X325.664Y-140.915
M15
G01X325.664Y-141.415
M16
G05
G00X344.714Y-102.815
M15
G01X344.714Y-103.315
M16
G05
G00X344.714Y-121.865
M15
G01X344.714Y-122.365
M16
G05
G00X344.714Y-140.915
M15
G01X344.714Y-141.415
M16
G05
T3
G00X189.639Y-155.089
M15
G01X190.239Y-155.089
M16
G05
G00X227.24Y-155.089
M15
G01X227.84Y-155.089
M16
G05
M30
