M48
; DRILL file KiCad 10.0.4 date 2026-07-18T13:23:45
; FORMAT={-:-/ absolute / metric / decimal}
; #@! TF.CreationDate,2026-07-18T13:23:45-04:00
; #@! TF.GenerationSoftware,Kicad,Pcbnew,10.0.4
; #@! TF.FileFunction,Plated,1,2,PTH
FMAT,2
METRIC
; #@! TA.AperFunction,Plated,PTH,ViaDrill
T1C0.300
; #@! TA.AperFunction,Plated,PTH,ComponentDrill
T2C0.300
; #@! TA.AperFunction,Plated,PTH,ComponentDrill
T3C0.600
; #@! TA.AperFunction,Plated,PTH,ComponentDrill
T4C1.000
; #@! TA.AperFunction,Plated,PTH,ComponentDrill
T5C1.500
%
G90
G05
T1
X82.514Y-135.314
X82.764Y-116.939
X84.864Y-125.109
X86.964Y-136.389
X88.164Y-119.064
X101.789Y-135.239
X102.164Y-116.539
X103.914Y-122.069
X107.589Y-135.139
X107.864Y-116.139
X121.089Y-115.614
X121.214Y-134.564
X122.964Y-121.769
X126.614Y-134.539
X126.964Y-115.564
X136.339Y-159.989
X136.339Y-161.089
X138.889Y-155.239
X139.414Y-119.014
X139.689Y-136.464
X142.014Y-123.199
X143.589Y-162.514
X143.939Y-155.239
X145.539Y-137.989
X145.964Y-118.814
X150.239Y-159.064
X158.339Y-155.264
X158.439Y-118.764
X158.627Y-137.727
X161.064Y-128.429
X162.425Y-117.875
X163.314Y-153.764
X163.614Y-114.414
X164.764Y-138.114
X164.789Y-119.114
X167.789Y-165.689
X168.039Y-155.589
X168.764Y-158.564
X168.914Y-164.414
X169.914Y-159.239
X169.989Y-161.689
X170.289Y-155.689
X177.725Y-116.175
X177.739Y-121.929
X180.299Y-128.839
X180.449Y-127.819
X181.059Y-126.569
X181.544Y-127.444
X182.039Y-131.289
X182.709Y-154.117
X183.239Y-131.289
X183.739Y-136.989
X183.839Y-134.589
X184.164Y-144.389
X184.209Y-131.739
X184.239Y-135.489
X184.339Y-137.589
X184.599Y-113.029
X184.839Y-131.189
X184.941Y-141.222
X185.039Y-138.289
X185.717Y-132.871
X185.725Y-127.675
X185.734Y-142.384
X185.739Y-138.989
X185.814Y-107.814
X186.009Y-160.429
X186.264Y-144.414
X186.321Y-131.288
X186.539Y-104.389
X187.029Y-160.489
X187.241Y-131.709
X187.564Y-107.814
X187.614Y-105.014
X187.839Y-127.689
X188.094Y-160.485
X188.455Y-107.165
X188.455Y-108.165
X188.489Y-139.689
X188.605Y-153.565
X189.139Y-104.389
X189.151Y-160.707
X189.207Y-109.009
X189.454Y-127.304
X189.559Y-136.859
X190.039Y-104.389
X190.614Y-139.414
X190.939Y-104.389
X191.014Y-143.014
X191.214Y-138.814
X191.225Y-109.852
X191.284Y-140.944
X191.299Y-128.669
X191.689Y-136.439
X191.691Y-133.391
X191.939Y-103.289
X191.939Y-103.989
X192.179Y-168.489
X192.339Y-141.889
X192.419Y-134.089
X192.449Y-135.679
X192.814Y-130.014
X192.939Y-140.179
X193.209Y-134.909
X193.284Y-124.644
X193.7Y-107.216
X193.729Y-125.319
X193.814Y-119.814
X193.949Y-135.649
X193.999Y-134.099
X194.299Y-125.809
X194.414Y-130.414
X194.719Y-136.419
X194.727Y-133.38
X194.814Y-119.814
X195.139Y-114.989
X195.589Y-116.859
X195.769Y-143.959
X196.139Y-108.089
X196.354Y-111.564
X196.509Y-127.509
X196.639Y-108.589
X196.739Y-107.489
X196.772Y-138.898
X197.014Y-133.214
X197.059Y-128.329
X197.154Y-112.244
X197.214Y-124.414
X197.439Y-106.789
X197.539Y-127.389
X197.639Y-104.389
X197.639Y-105.089
X197.648Y-139.678
X197.814Y-136.214
X197.939Y-105.989
X198.014Y-124.414
X198.414Y-134.614
X198.605Y-136.565
X198.705Y-148.465
X198.766Y-140.893
X198.898Y-137.772
X199.614Y-138.488
X199.739Y-123.889
X199.855Y-142.015
X199.939Y-130.889
X200.239Y-123.389
X200.439Y-130.389
X200.639Y-136.889
X200.805Y-138.765
X200.905Y-143.065
X201.031Y-108.525
X201.039Y-136.389
X201.105Y-121.715
X201.21Y-105.817
X201.331Y-140.089
X201.389Y-114.159
X201.883Y-108.711
X202.105Y-123.015
X202.129Y-128.089
X202.139Y-130.789
X202.239Y-132.389
X202.253Y-143.415
X202.355Y-141.115
X202.439Y-137.189
X202.639Y-126.709
X202.705Y-154.115
X203.055Y-122.065
X203.265Y-106.814
X203.455Y-141.115
X204.105Y-143.415
X204.564Y-122.664
X204.939Y-106.089
X205.539Y-104.989
X205.591Y-129.738
X205.939Y-104.289
X206.189Y-123.639
X206.224Y-126.016
X206.779Y-130.839
X219.255Y-101.165
X219.605Y-119.215
X219.755Y-121.365
X220.005Y-104.665
X220.755Y-104.165
X220.755Y-105.165
X221.255Y-105.915
X221.755Y-130.575
X222.405Y-125.365
X222.555Y-132.915
X222.678Y-143.608
X222.855Y-161.815
X222.905Y-123.115
X222.929Y-141.275
X223.253Y-134.051
X223.605Y-119.115
X223.663Y-120.481
X223.897Y-134.865
X223.905Y-116.965
X224.405Y-135.615
X224.465Y-106.065
X224.465Y-111.465
X224.506Y-108.817
X224.555Y-143.608
X224.605Y-141.308
X224.655Y-123.315
X225.465Y-111.465
X225.538Y-128.832
X225.605Y-116.215
X225.805Y-156.315
X225.905Y-124.665
X226.105Y-133.025
X226.173Y-143.608
X226.347Y-141.307
X226.522Y-134.598
X226.665Y-106.865
X226.705Y-116.165
X227.372Y-140.282
X227.405Y-143.449
X227.515Y-106.755
X227.663Y-129.257
X227.796Y-130.224
X227.83Y-116.19
X228.005Y-105.865
X228.055Y-134.565
X228.222Y-139.459
X228.273Y-142.633
X228.405Y-120.865
X228.455Y-135.765
X228.755Y-105.915
X229.055Y-105.025
X229.128Y-138.597
X229.155Y-116.215
X229.505Y-142.415
X229.705Y-120.765
X229.705Y-121.815
X229.754Y-141.202
X229.755Y-123.015
X229.93Y-110.69
X230.255Y-126.415
X230.35Y-140.618
X230.355Y-113.865
X230.505Y-101.165
X230.555Y-111.365
X231.005Y-125.915
X231.255Y-129.665
X231.255Y-130.465
X231.325Y-142.925
X231.455Y-144.065
X231.505Y-125.415
X231.652Y-140.146
X231.727Y-133.387
X231.735Y-136.445
X231.755Y-106.165
X231.755Y-107.165
X231.755Y-119.215
X231.805Y-115.215
X231.865Y-142.315
X232.005Y-120.465
X232.005Y-139.265
X232.055Y-122.215
X232.465Y-134.095
X232.495Y-135.685
X232.505Y-102.165
X232.617Y-141.652
X233.255Y-134.915
X233.355Y-123.615
X233.58Y-140.34
X233.665Y-105.465
X233.995Y-135.655
X234.045Y-134.105
X234.155Y-111.715
X234.773Y-133.386
X234.795Y-136.455
X235.005Y-105.065
X235.005Y-138.665
X235.005Y-139.615
X235.067Y-130.877
X235.665Y-109.865
X235.905Y-105.015
X235.942Y-110.643
X236.505Y-100.665
X236.505Y-101.415
X236.505Y-102.165
X236.505Y-126.665
X236.505Y-143.165
X236.605Y-113.615
X236.855Y-110.265
X237.005Y-129.165
X237.005Y-142.665
X237.255Y-127.415
X237.605Y-154.015
X237.805Y-143.015
X237.855Y-135.965
X238.005Y-100.415
X238.155Y-110.265
X238.155Y-134.365
X238.265Y-141.169
X238.455Y-107.615
X238.705Y-137.765
X239.005Y-100.415
X239.005Y-143.065
X239.205Y-133.265
X239.805Y-137.965
X240.005Y-100.415
X240.955Y-105.315
X241.005Y-131.165
X241.355Y-137.765
X241.755Y-131.915
X242.655Y-133.565
X243.255Y-134.415
X248.155Y-129.765
X248.205Y-130.715
X248.205Y-137.365
X248.605Y-135.015
X249.455Y-124.815
X249.505Y-123.915
X254.455Y-118.665
X256.455Y-155.365
X260.905Y-119.515
X261.205Y-136.165
X261.355Y-155.365
X262.555Y-121.665
X264.055Y-136.265
X264.505Y-118.015
X264.755Y-119.515
X274.405Y-155.015
X279.855Y-115.615
X280.105Y-134.065
X280.255Y-153.815
X281.605Y-121.765
X283.155Y-134.015
X283.255Y-115.615
X294.055Y-152.715
X298.505Y-152.915
X298.905Y-114.365
X299.005Y-133.765
X300.655Y-130.765
X302.205Y-133.965
X302.455Y-114.365
X317.755Y-136.065
X318.055Y-115.515
X319.705Y-134.915
X321.155Y-115.865
X321.555Y-136.565
X337.405Y-136.365
X337.455Y-117.465
X338.655Y-135.065
X340.255Y-117.515
X340.555Y-136.365
X357.755Y-137.565
T2
X204.264Y-140.154
X222.194Y-140.165
T4
X175.031Y-158.963
X175.688Y-156.51
X177.484Y-159.621
X178.142Y-157.167
X179.938Y-160.278
X180.595Y-157.825
X186.939Y-152.589
X186.939Y-155.089
X186.939Y-157.589
X190.829Y-145.589
X193.369Y-145.589
X195.909Y-145.589
X198.449Y-145.589
X201.439Y-152.589
X201.439Y-157.589
X217.84Y-129.955
X217.84Y-124.875
X217.84Y-127.415
X220.38Y-124.875
X220.38Y-127.415
X220.38Y-129.955
X224.54Y-152.589
X224.54Y-155.089
X224.54Y-157.589
X228.024Y-145.565
X230.564Y-145.565
X233.104Y-145.565
X235.644Y-145.565
X239.04Y-152.589
X239.04Y-157.589
T3
G00X195.93Y-99.665
M15
G01X195.93Y-98.665
M16
G05
G00X195.93Y-103.565
M15
G01X195.93Y-102.765
M16
G05
G00X207.17Y-99.665
M15
G01X207.17Y-98.665
M16
G05
G00X207.17Y-103.565
M15
G01X207.17Y-102.765
M16
G05
G00X219.294Y-99.64
M15
G01X219.294Y-98.64
M16
G05
G00X219.294Y-103.54
M15
G01X219.294Y-102.74
M16
G05
G00X230.534Y-103.54
M15
G01X230.534Y-102.74
M16
G05
G00X230.534Y-99.64
M15
G01X230.534Y-98.64
M16
G05
T5
G00X193.789Y-149.489
M15
G01X195.089Y-149.489
M16
G05
G00X193.789Y-160.689
M15
G01X195.089Y-160.689
M16
G05
G00X231.39Y-149.489
M15
G01X232.69Y-149.489
M16
G05
G00X231.39Y-160.689
M15
G01X232.69Y-160.689
M16
G05
M30
