%TF.GenerationSoftware,KiCad,Pcbnew,10.0.4*%
%TF.CreationDate,2026-07-18T13:23:33-04:00*%
%TF.ProjectId,pcb,7063622e-6b69-4636-9164-5f7063625858,rev?*%
%TF.SameCoordinates,Original*%
%TF.FileFunction,Other,User*%
%FSLAX46Y46*%
G04 Gerber Fmt 4.6, Leading zero omitted, Abs format (unit mm)*
G04 Created by KiCad (PCBNEW 10.0.4) date 2026-07-18 13:23:33*
%MOMM*%
%LPD*%
G01*
G04 APERTURE LIST*
%ADD10C,0.100000*%
G04 APERTURE END LIST*
%TO.C,SW16*%
D10*
X126914214Y-136064214D02*
X126914214Y-150064214D01*
X126914214Y-150064214D02*
X140914214Y-150064214D01*
X140914214Y-136064214D02*
X126914214Y-136064214D01*
X140914214Y-150064214D02*
X140914214Y-136064214D01*
%TO.C,SW63*%
X285564130Y-136065000D02*
X285564130Y-150065000D01*
X285564130Y-150065000D02*
X299564130Y-150065000D01*
X299564130Y-136065000D02*
X285564130Y-136065000D01*
X299564130Y-150065000D02*
X299564130Y-136065000D01*
%TO.C,SW3*%
X145964214Y-101014214D02*
X145964214Y-115014214D01*
X145964214Y-115014214D02*
X159964214Y-115014214D01*
X159964214Y-101014214D02*
X145964214Y-101014214D01*
X159964214Y-115014214D02*
X159964214Y-101014214D01*
%TO.C,SW64*%
X304614130Y-136565000D02*
X304614130Y-150565000D01*
X304614130Y-150565000D02*
X318614130Y-150565000D01*
X318614130Y-136565000D02*
X304614130Y-136565000D01*
X318614130Y-150565000D02*
X318614130Y-136565000D01*
%TO.C,SW62*%
X266514130Y-139115000D02*
X266514130Y-153115000D01*
X266514130Y-153115000D02*
X280514130Y-153115000D01*
X280514130Y-139115000D02*
X266514130Y-139115000D01*
X280514130Y-153115000D02*
X280514130Y-139115000D01*
%TO.C,SW21*%
X166702392Y-174527569D02*
X180225353Y-178151036D01*
X170325859Y-161004608D02*
X166702392Y-174527569D01*
X180225353Y-178151036D02*
X183848820Y-164628075D01*
X183848820Y-164628075D02*
X170325859Y-161004608D01*
%TO.C,SW4*%
X126914214Y-97964214D02*
X126914214Y-111964214D01*
X126914214Y-111964214D02*
X140914214Y-111964214D01*
X140914214Y-97964214D02*
X126914214Y-97964214D01*
X140914214Y-111964214D02*
X140914214Y-97964214D01*
%TO.C,SW68*%
X242640916Y-164638758D02*
X246264383Y-178161719D01*
X246264383Y-178161719D02*
X259787344Y-174538252D01*
X256163877Y-161015291D02*
X242640916Y-164638758D01*
X259787344Y-174538252D02*
X256163877Y-161015291D01*
%TO.C,SW12*%
X88814214Y-120264214D02*
X88814214Y-134264214D01*
X88814214Y-134264214D02*
X102814214Y-134264214D01*
X102814214Y-120264214D02*
X88814214Y-120264214D01*
X102814214Y-134264214D02*
X102814214Y-120264214D01*
%TO.C,SW65*%
X323664130Y-139315000D02*
X323664130Y-153315000D01*
X323664130Y-153315000D02*
X337664130Y-153315000D01*
X337664130Y-139315000D02*
X323664130Y-139315000D01*
X337664130Y-153315000D02*
X337664130Y-139315000D01*
%TO.C,SW20*%
X186488430Y-180713648D02*
X199176739Y-186630305D01*
X192405087Y-168025339D02*
X186488430Y-180713648D01*
X199176739Y-186630305D02*
X205093396Y-173941996D01*
X205093396Y-173941996D02*
X192405087Y-168025339D01*
%TO.C,SW56*%
X266514130Y-120065000D02*
X266514130Y-134065000D01*
X266514130Y-134065000D02*
X280514130Y-134065000D01*
X280514130Y-120065000D02*
X266514130Y-120065000D01*
X280514130Y-134065000D02*
X280514130Y-120065000D01*
%TO.C,J3*%
X197030350Y-97165214D02*
X206070350Y-97165214D01*
X197030350Y-103665214D02*
X197030350Y-97165214D01*
X197030350Y-103665214D02*
X206070350Y-103665214D01*
X206070350Y-103665214D02*
X206070350Y-97165214D01*
%TO.C,SW18*%
X88814214Y-139314214D02*
X88814214Y-153314214D01*
X88814214Y-153314214D02*
X102814214Y-153314214D01*
X102814214Y-139314214D02*
X88814214Y-139314214D01*
X102814214Y-153314214D02*
X102814214Y-139314214D01*
%TO.C,SW67*%
X221361648Y-173929174D02*
X227278304Y-186617482D01*
X227278304Y-186617482D02*
X239966612Y-180700826D01*
X234049956Y-168012518D02*
X221361648Y-173929174D01*
X239966612Y-180700826D02*
X234049956Y-168012518D01*
%TO.C,SW22*%
X146014214Y-160014214D02*
X146014214Y-174014214D01*
X146014214Y-174014214D02*
X160014214Y-174014214D01*
X160014214Y-160014214D02*
X146014214Y-160014214D01*
X160014214Y-174014214D02*
X160014214Y-160014214D01*
%TO.C,SW14*%
X165014214Y-139114214D02*
X165014214Y-153114214D01*
X165014214Y-153114214D02*
X179014214Y-153114214D01*
X179014214Y-139114214D02*
X165014214Y-139114214D01*
X179014214Y-153114214D02*
X179014214Y-139114214D01*
%TO.C,SW54*%
X342714130Y-101215000D02*
X342714130Y-115215000D01*
X342714130Y-115215000D02*
X356714130Y-115215000D01*
X356714130Y-101215000D02*
X342714130Y-101215000D01*
X356714130Y-115215000D02*
X356714130Y-101215000D01*
%TO.C,SW13*%
X69764214Y-120264214D02*
X69764214Y-134264214D01*
X69764214Y-134264214D02*
X83764214Y-134264214D01*
X83764214Y-120264214D02*
X69764214Y-120264214D01*
X83764214Y-134264214D02*
X83764214Y-120264214D01*
%TO.C,SW7*%
X69764214Y-101214214D02*
X69764214Y-115214214D01*
X69764214Y-115214214D02*
X83764214Y-115214214D01*
X83764214Y-101214214D02*
X69764214Y-101214214D01*
X83764214Y-115214214D02*
X83764214Y-101214214D01*
%TO.C,SW53*%
X323664130Y-101215000D02*
X323664130Y-115215000D01*
X323664130Y-115215000D02*
X337664130Y-115215000D01*
X337664130Y-101215000D02*
X323664130Y-101215000D01*
X337664130Y-115215000D02*
X337664130Y-101215000D01*
%TO.C,SW10*%
X126914214Y-116994214D02*
X126914214Y-130994214D01*
X126914214Y-130994214D02*
X140914214Y-130994214D01*
X140914214Y-116994214D02*
X126914214Y-116994214D01*
X140914214Y-130994214D02*
X140914214Y-116994214D01*
%TO.C,SW55*%
X247464130Y-120065000D02*
X247464130Y-134065000D01*
X247464130Y-134065000D02*
X261464130Y-134065000D01*
X261464130Y-120065000D02*
X247464130Y-120065000D01*
X261464130Y-134065000D02*
X261464130Y-120065000D01*
%TO.C,SW51*%
X285564130Y-97965000D02*
X285564130Y-111965000D01*
X285564130Y-111965000D02*
X299564130Y-111965000D01*
X299564130Y-97965000D02*
X285564130Y-97965000D01*
X299564130Y-111965000D02*
X299564130Y-97965000D01*
%TO.C,SW19*%
X69764214Y-139314214D02*
X69764214Y-153314214D01*
X69764214Y-153314214D02*
X83764214Y-153314214D01*
X83764214Y-139314214D02*
X69764214Y-139314214D01*
X83764214Y-153314214D02*
X83764214Y-139314214D01*
%TO.C,SW9*%
X145964214Y-120064214D02*
X145964214Y-134064214D01*
X145964214Y-134064214D02*
X159964214Y-134064214D01*
X159964214Y-120064214D02*
X145964214Y-120064214D01*
X159964214Y-134064214D02*
X159964214Y-120064214D01*
%TO.C,SW61*%
X247464130Y-139115000D02*
X247464130Y-153115000D01*
X247464130Y-153115000D02*
X261464130Y-153115000D01*
X261464130Y-139115000D02*
X247464130Y-139115000D01*
X261464130Y-153115000D02*
X261464130Y-139115000D01*
%TO.C,SW49*%
X247454130Y-101025000D02*
X247454130Y-115025000D01*
X247454130Y-115025000D02*
X261454130Y-115025000D01*
X261454130Y-101025000D02*
X247454130Y-101025000D01*
X261454130Y-115025000D02*
X261454130Y-101025000D01*
%TO.C,SW57*%
X285564130Y-117015000D02*
X285564130Y-131015000D01*
X285564130Y-131015000D02*
X299564130Y-131015000D01*
X299564130Y-117015000D02*
X285564130Y-117015000D01*
X299564130Y-131015000D02*
X299564130Y-117015000D01*
%TO.C,SW5*%
X107864214Y-98464214D02*
X107864214Y-112464214D01*
X107864214Y-112464214D02*
X121864214Y-112464214D01*
X121864214Y-98464214D02*
X107864214Y-98464214D01*
X121864214Y-112464214D02*
X121864214Y-98464214D01*
%TO.C,SW11*%
X107864214Y-117514214D02*
X107864214Y-131514214D01*
X107864214Y-131514214D02*
X121864214Y-131514214D01*
X121864214Y-117514214D02*
X107864214Y-117514214D01*
X121864214Y-131514214D02*
X121864214Y-117514214D01*
%TO.C,SW15*%
X145964214Y-139114214D02*
X145964214Y-153114214D01*
X145964214Y-153114214D02*
X159964214Y-153114214D01*
X159964214Y-139114214D02*
X145964214Y-139114214D01*
X159964214Y-153114214D02*
X159964214Y-139114214D01*
%TO.C,SW6*%
X88814214Y-101214214D02*
X88814214Y-115214214D01*
X88814214Y-115214214D02*
X102814214Y-115214214D01*
X102814214Y-101214214D02*
X88814214Y-101214214D01*
X102814214Y-115214214D02*
X102814214Y-101214214D01*
%TO.C,SW8*%
X165014214Y-120064214D02*
X165014214Y-134064214D01*
X165014214Y-134064214D02*
X179014214Y-134064214D01*
X179014214Y-120064214D02*
X165014214Y-120064214D01*
X179014214Y-134064214D02*
X179014214Y-120064214D01*
%TO.C,SW2*%
X165014214Y-101014214D02*
X165014214Y-115014214D01*
X165014214Y-115014214D02*
X179014214Y-115014214D01*
X179014214Y-101014214D02*
X165014214Y-101014214D01*
X179014214Y-115014214D02*
X179014214Y-101014214D01*
%TO.C,J11*%
X220394129Y-103640002D02*
X220394130Y-97140000D01*
X220394129Y-103640002D02*
X229434130Y-103639998D01*
X220394130Y-97140000D02*
X229434132Y-97140000D01*
X229434130Y-103639998D02*
X229434132Y-97140000D01*
%TO.C,SW60*%
X342714130Y-120265000D02*
X342714130Y-134265000D01*
X342714130Y-134265000D02*
X356714130Y-134265000D01*
X356714130Y-120265000D02*
X342714130Y-120265000D01*
X356714130Y-134265000D02*
X356714130Y-120265000D01*
%TO.C,SW17*%
X107864214Y-136564214D02*
X107864214Y-150564214D01*
X107864214Y-150564214D02*
X121864214Y-150564214D01*
X121864214Y-136564214D02*
X107864214Y-136564214D01*
X121864214Y-150564214D02*
X121864214Y-136564214D01*
%TO.C,SW58*%
X304614130Y-117515000D02*
X304614130Y-131515000D01*
X304614130Y-131515000D02*
X318614130Y-131515000D01*
X318614130Y-117515000D02*
X304614130Y-117515000D01*
X318614130Y-131515000D02*
X318614130Y-117515000D01*
%TO.C,SW66*%
X342714130Y-139315000D02*
X342714130Y-153315000D01*
X342714130Y-153315000D02*
X356714130Y-153315000D01*
X356714130Y-139315000D02*
X342714130Y-139315000D01*
X356714130Y-153315000D02*
X356714130Y-139315000D01*
%TO.C,SW50*%
X266504130Y-101025000D02*
X266504130Y-115025000D01*
X266504130Y-115025000D02*
X280504130Y-115025000D01*
X280504130Y-101025000D02*
X266504130Y-101025000D01*
X280504130Y-115025000D02*
X280504130Y-101025000D01*
%TO.C,SW69*%
X266464130Y-160015000D02*
X266464130Y-174015000D01*
X266464130Y-174015000D02*
X280464130Y-174015000D01*
X280464130Y-160015000D02*
X266464130Y-160015000D01*
X280464130Y-174015000D02*
X280464130Y-160015000D01*
%TO.C,SW59*%
X323664130Y-120265000D02*
X323664130Y-134265000D01*
X323664130Y-134265000D02*
X337664130Y-134265000D01*
X337664130Y-120265000D02*
X323664130Y-120265000D01*
X337664130Y-134265000D02*
X337664130Y-120265000D01*
%TO.C,SW52*%
X304614130Y-98465000D02*
X304614130Y-112465000D01*
X304614130Y-112465000D02*
X318614130Y-112465000D01*
X318614130Y-98465000D02*
X304614130Y-98465000D01*
X318614130Y-112465000D02*
X318614130Y-98465000D01*
%TD*%
M02*
